<?xml version="1.0" encoding="UTF-8" standalone="no"?>
<svg width="43px" height="43px" viewBox="0 0 43 43" version="1.1" xmlns="http://www.w3.org/2000/svg" xmlns:xlink="http://www.w3.org/1999/xlink" xmlns:sketch="http://www.bohemiancoding.com/sketch/ns">
    <!-- Generator: Sketch 3.4 (15588) - http://www.bohemiancoding.com/sketch -->
    <title>twitter</title>
    <desc>Created with Sketch.</desc>
    <defs></defs>
    <g id="Page-1" stroke="none" stroke-width="1" fill="none" fill-rule="evenodd" sketch:type="MSPage">
        <g id="twitter" sketch:type="MSLayerGroup" fill="#000000">
            <path d="M21.625,40.625 L21.625,40.625 C32.1184103,40.625 40.625,32.1184103 40.625,21.625 C40.625,11.1315897 32.1184103,2.625 21.625,2.625 C11.1315897,2.625 2.625,11.1315897 2.625,21.625 C2.625,32.1184103 11.1315897,40.625 21.625,40.625 L21.625,40.625 L21.625,40.625 Z M21.5,43 L21.5,43 C9.62587788,43 0,33.3741221 0,21.5 C0,9.62587787 9.62587788,0 21.5,0 C33.3741221,0 43,9.62587787 43,21.5 C43,33.3741221 33.3741221,43 21.5,43 L21.5,43 L21.5,43 Z" id="Shape" sketch:type="MSShapeGroup"></path>
            <path d="M18.2156744,32 L18.2156744,21.4986745 L16,21.4986745 L16,17.8802701 L18.2156744,17.8802701 L18.2156744,15.707902 C18.2156744,12.7561853 19.4660976,11 23.0209308,11 L25.9796789,11 L25.9796789,14.6197299 L24.1304612,14.6197299 C22.7465962,14.6197299 22.6551514,15.1253787 22.6551514,16.0690798 L22.6490551,17.8802701 L26,17.8802701 L25.6078032,21.4986745 L22.6490551,21.4986745 L22.6490551,32 L18.2156744,32 L18.2156744,32 Z" id="Shape" sketch:type="MSShapeGroup"></path>
        </g>
    </g>
</svg>