<?xml version="1.0" encoding="UTF-8" standalone="no"?>
<svg width="43px" height="43px" viewBox="0 0 43 43" version="1.1" xmlns="http://www.w3.org/2000/svg" xmlns:xlink="http://www.w3.org/1999/xlink" xmlns:sketch="http://www.bohemiancoding.com/sketch/ns">
    <!-- Generator: Sketch 3.4 (15588) - http://www.bohemiancoding.com/sketch -->
    <title>twitter</title>
    <desc>Created with Sketch.</desc>
    <defs></defs>
    <g id="Page-1" stroke="none" stroke-width="1" fill="none" fill-rule="evenodd" sketch:type="MSPage">
        <g id="twitter" sketch:type="MSLayerGroup" fill="#000000">
            <path d="M21.625,40.625 L21.625,40.625 C32.1184103,40.625 40.625,32.1184103 40.625,21.625 C40.625,11.1315897 32.1184103,2.625 21.625,2.625 C11.1315897,2.625 2.625,11.1315897 2.625,21.625 C2.625,32.1184103 11.1315897,40.625 21.625,40.625 L21.625,40.625 L21.625,40.625 Z M21.5,43 L21.5,43 C9.62587788,43 0,33.3741221 0,21.5 C0,9.62587787 9.62587788,0 21.5,0 C33.3741221,0 43,9.62587787 43,21.5 C43,33.3741221 33.3741221,43 21.5,43 L21.5,43 L21.5,43 Z" id="Shape" sketch:type="MSShapeGroup"></path>
            <path d="M13.0155685,17.9319176 C13.2812329,18.1136565 14.0819658,18.6535732 15.417911,19.5512492 C16.7538562,20.4489252 17.7772465,21.1401747 18.4882261,21.6248584 C18.5663287,21.6779992 18.7323151,21.7934864 18.9861849,21.9714595 C19.2400548,22.149572 19.4510616,22.293652 19.6189178,22.4034207 C19.7869178,22.5131893 19.9900136,22.6363477 20.2283493,22.7726171 C20.4666849,22.9088864 20.6913562,23.0112628 20.9022191,23.0791883 C21.1132261,23.1475321 21.3085548,23.1814251 21.4882055,23.1814251 L21.5,23.1814251 L21.5117945,23.1814251 C21.6914452,23.1814251 21.8867739,23.1475321 22.0977809,23.0791883 C22.3086439,23.0112628 22.533459,22.9087469 22.7716507,22.7726171 C23.0098425,22.6362083 23.2129384,22.5131893 23.3809384,22.4034207 C23.5489384,22.293652 23.7598013,22.149572 24.0136713,21.9714595 C24.267541,21.7933469 24.4336713,21.6779992 24.5117739,21.6248584 C25.2303767,21.1400352 27.0586713,19.9090085 29.9960822,17.9316387 C30.5663904,17.545426 31.0427739,17.0794323 31.4256644,16.5339365 C31.8086987,15.9887197 32,15.4167233 32,14.8182261 C32,14.3182 31.8143082,13.8901441 31.4432123,13.5340587 C31.0721164,13.1779731 30.6325548,13 30.124959,13 L12.8748973,13 C12.2733767,13 11.8105137,13.196942 11.4863082,13.5908259 C11.1621027,13.9848493 11,14.4773436 11,15.0681696 C11,15.5454609 11.2148904,16.0626428 11.6445274,16.6194361 C12.0741644,17.1762296 12.531274,17.6137699 13.0155685,17.9319176 L13.0155685,17.9319176 Z M30.8280274,19.1477413 C28.2657397,20.8294192 26.3202191,22.1363216 24.9923287,23.0681696 C24.5470136,23.3863173 24.1856987,23.6345869 23.9082397,23.8124204 C23.6309246,23.9905329 23.2618425,24.1722719 22.8008493,24.3579163 C22.34,24.5435605 21.910363,24.6363129 21.5119384,24.6363129 L21.5,24.6363129 L21.4882055,24.6363129 C21.0897809,24.6363129 20.66,24.5435605 20.1991507,24.3579163 C19.7383013,24.1722719 19.3690754,23.9905329 19.0917603,23.8124204 C18.8144452,23.6345869 18.4531301,23.3863173 18.0078151,23.0681696 C16.9530684,22.3182 15.0117191,21.0112976 12.1836233,19.1477413 C11.7383082,18.8599996 11.3437671,18.5302753 11,18.1591261 L11,27.1816343 C11,27.6818 11.1835343,28.1097164 11.5507466,28.4658019 C11.9179589,28.8220269 12.3593904,29 12.8750411,29 L30.1251027,29 C30.6406096,29 31.082041,28.8220269 31.4492535,28.4658019 C31.8166096,28.1095768 32,27.6818 32,27.1816343 L32,18.1591261 C31.664,18.522604 31.2734864,18.8523284 30.8280274,19.1477413 L30.8280274,19.1477413 Z" id="Shape" sketch:type="MSShapeGroup"></path>
        </g>
    </g>
</svg>