<svg viewBox="0 0 35 35" xmlns="http://www.w3.org/2000/svg"><g fill="none" fill-rule="evenodd" transform="translate(.484.461)"><ellipse stroke="#000" stroke-width="2" cx="17.246" cy="17.246" rx="17.246" ry="17.246"/><path d="m10.278 14.84c.218.142.876.566 1.973 1.269 1.097.704 1.938 1.246 2.521 1.625.064.042.2.132.409.272.208.14.382.253.52.339.138.086.305.183.5.289.196.107.38.187.553.24.173.054.334.08.481.08h.01.01c.148 0 .308-.027.481-.08.173-.053.358-.134.553-.24.196-.107.362-.203.5-.289.138-.086.311-.199.52-.339.208-.14.345-.23.409-.272.59-.38 2.092-1.345 4.504-2.895.468-.303.86-.668 1.174-1.096.315-.427.472-.876.472-1.345 0-.392-.152-.728-.457-1.01-.305-.279-.666-.419-1.083-.419h-14.166c-.494 0-.874.154-1.14.463-.266.309-.399.695-.399 1.158 0 .374.176.78.529 1.216.353.436.728.779 1.126 1.029m14.628.953c-2.104 1.318-3.702 2.343-4.792 3.073-.366.249-.662.444-.89.583-.228.14-.531.282-.909.428-.378.146-.731.218-1.058.218h-.01-.01c-.327 0-.68-.073-1.059-.218-.378-.146-.682-.288-.909-.428-.228-.139-.524-.334-.89-.583-.866-.588-2.46-1.612-4.783-3.073-.366-.226-.69-.484-.972-.775v7.07c0 .392.151.728.452 1.01.302.279.664.419 1.088.419h14.166c.423 0 .786-.14 1.087-.419.302-.279.452-.615.452-1.01v-7.07c-.276.285-.597.543-.962.775" fill="#000"/></g></svg>