<?xml version="1.0" encoding="UTF-8" standalone="no"?>
<svg width="43px" height="43px" viewBox="0 0 43 43" version="1.1" xmlns="http://www.w3.org/2000/svg" xmlns:xlink="http://www.w3.org/1999/xlink" xmlns:sketch="http://www.bohemiancoding.com/sketch/ns">
    <!-- Generator: Sketch 3.4 (15588) - http://www.bohemiancoding.com/sketch -->
    <title>twitter</title>
    <desc>Created with Sketch.</desc>
    <defs></defs>
    <g id="Page-1" stroke="none" stroke-width="1" fill="none" fill-rule="evenodd" sketch:type="MSPage">
        <g id="twitter" sketch:type="MSLayerGroup" fill="#000000">
            <path d="M21.625,40.625 L21.625,40.625 C32.1184103,40.625 40.625,32.1184103 40.625,21.625 C40.625,11.1315897 32.1184103,2.625 21.625,2.625 C11.1315897,2.625 2.625,11.1315897 2.625,21.625 C2.625,32.1184103 11.1315897,40.625 21.625,40.625 L21.625,40.625 L21.625,40.625 Z M21.5,43 L21.5,43 C9.62587788,43 0,33.3741221 0,21.5 C0,9.62587787 9.62587788,0 21.5,0 C33.3741221,0 43,9.62587787 43,21.5 C43,33.3741221 33.3741221,43 21.5,43 L21.5,43 L21.5,43 Z" id="Shape" sketch:type="MSShapeGroup"></path>
            <path d="M29.6439513,15.6876354 C30.4915184,15.1572295 31.1418677,14.3161924 31.4470857,13.3143146 C30.6535188,13.806659 29.7766039,14.1627185 28.8409931,14.3554818 C28.0943828,13.5205835 27.0272936,13 25.8463344,13 C23.5806773,13 21.7446733,14.9214935 21.7446733,17.291131 C21.7446733,17.6275458 21.7787169,17.9553662 21.8491519,18.268453 C18.4401009,18.0891955 15.4172683,16.3825653 13.3922639,13.7845588 C13.0389153,14.4205547 12.8370018,15.1572295 12.8370018,15.9430161 C12.8370018,17.4310992 13.5613077,18.744836 14.6624405,19.5158891 C13.9897869,19.4937888 13.3570464,19.29857 12.8029583,18.9793442 L12.8029583,19.0321393 C12.8029583,21.1120179 14.2163527,22.8468872 16.0957915,23.2397804 C15.7506603,23.3404594 15.3890943,23.3907988 15.0134413,23.3907988 C14.7493103,23.3907988 14.4910489,23.3650152 14.2421788,23.3146757 C14.7633973,25.0188503 16.2789224,26.2613752 18.0750132,26.2945254 C16.6698363,27.4461938 14.9007455,28.1313014 12.9790456,28.1313014 C12.6480014,28.1313014 12.320479,28.1128845 12,28.0723675 C13.8160475,29.2891088 15.9725304,30 18.2898397,30 C25.8381171,30 29.9632564,23.4607829 29.9632564,17.7896144 C29.9632564,17.6029901 29.9609087,17.4175936 29.9526912,17.2346527 C30.7544756,16.6293514 31.4517815,15.8730319 32,15.0123502 C31.2639549,15.3536762 30.4727359,15.584501 29.6439513,15.6876354 L29.6439513,15.6876354 Z" id="Shape" sketch:type="MSShapeGroup"></path>
        </g>
    </g>
</svg>