<?xml version="1.0" encoding="utf-8"?>
<!-- Generator: Adobe Illustrator 16.0.0, SVG Export Plug-In . SVG Version: 6.00 Build 0)  -->
<!DOCTYPE svg PUBLIC "-//W3C//DTD SVG 1.1//EN" "http://www.w3.org/Graphics/SVG/1.1/DTD/svg11.dtd">
<svg version="1.1" id="Layer_1" xmlns:sketch="http://www.bohemiancoding.com/sketch/ns"
	 xmlns="http://www.w3.org/2000/svg" xmlns:xlink="http://www.w3.org/1999/xlink" x="0px" y="0px" width="260px" height="100px"
	 viewBox="0 0 260 100" enable-background="new 0 0 260 100" xml:space="preserve">
<title>logo</title>
<desc>Created with Sketch.</desc>
<g id="New-design" sketch:type="MSPage">
	<g id="Slim" transform="translate(-51.000000, -242.000000)" sketch:type="MSArtboardGroup">
		<g id="logo" transform="translate(50.880734, 242.242291)" sketch:type="MSLayerGroup">
			<path id="Fill-1" sketch:type="MSShapeGroup" fill="#EDD400" d="M44.168,41.69c-6.056,0-9.448-4.548-9.448-11.454V11.455
				C34.72,4.633,38.112,0,44.168,0c6.141,0,9.111,4.632,9.111,11.455v10.359H41.056v10.71c0,2.189,1.095,3.705,3.197,3.705
				c2.271,0,3.196-1.516,3.196-3.705v-6.079h5.83v3.875C53.279,37.142,50.309,41.69,44.168,41.69 M47.365,9.566
				c0-2.273-0.919-3.879-3.023-3.879c-2.018,0-3.195,1.515-3.195,3.79l-0.091,6.962h6.31V9.566"/>
			<path id="Fill-2" sketch:type="MSShapeGroup" fill="#EDD400" d="M144.305,41.69c-6.057,0-9.448-4.548-9.448-11.454V11.455
				c0-6.823,3.392-11.455,9.448-11.455c6.141,0,9.111,4.632,9.111,11.455v10.359h-12.224v10.71c0,2.189,1.095,3.705,3.196,3.705
				c2.271,0,3.197-1.516,3.197-3.705v-6.079h5.83v3.875C153.416,37.142,150.445,41.69,144.305,41.69 M147.502,9.566
				c0-2.273-0.92-3.879-3.023-3.879c-2.018,0-3.195,1.515-3.195,3.79l-0.091,6.962h6.31V9.566"/>
			<path id="Fill-3" sketch:type="MSShapeGroup" fill="#EDD400" d="M226.975,99.211c-6.057,0-9.448-4.549-9.448-11.454V68.975
				c0-6.823,3.392-11.455,9.448-11.455c6.142,0,9.111,4.632,9.111,11.455v10.358h-12.223v10.711c0,2.189,1.094,3.705,3.196,3.705
				c2.271,0,3.196-1.516,3.196-3.705v-6.078h5.83v3.874C236.086,94.662,233.116,99.211,226.975,99.211 M230.172,67.086
				c0-2.273-0.919-3.879-3.022-3.879c-2.018,0-3.196,1.515-3.196,3.789l-0.09,6.962h6.309V67.086"/>
			<path id="Fill-4" sketch:type="MSShapeGroup" fill="#EDD400" d="M71.657,41.01l-6.754-18.237l-2.233-6.159V41.01h-5.789V0.791
				h5.669l6.273,18.418l2.05,6.221V0.791h5.73V41.01H71.657"/>
			<path id="Fill-5" sketch:type="MSShapeGroup" fill="#EDD400" d="M100.618,41.734c-5.79,0-9.409-3.562-9.409-9.238v-3.564h5.851
				v3.443c0,2.536,1.146,3.985,3.377,3.985c2.292,0,3.378-1.388,3.378-3.623c0-3.502-1.75-6.1-5.127-9.662
				c-3.317-3.322-7.177-8.032-7.177-13.165c0-5.435,3.136-9.842,9.349-9.842c5.368,0,8.865,3.744,8.865,9.238v3.624h-5.789V9.306
				c0-2.234-1.026-3.744-3.076-3.744c-1.87,0-3.137,1.208-3.137,3.261c0,3.925,1.75,5.857,5.488,9.844
				c3.921,4.045,6.816,8.092,6.816,13.164C110.027,38.232,105.865,41.734,100.618,41.734"/>
			<path id="Fill-6" sketch:type="MSShapeGroup" fill="#EDD400" d="M125.603,41.01h-6.212l-7.237-40.218h6.573l3.921,28.14
				l4.162-28.14h6.15L125.603,41.01"/>
			<path id="Fill-7" sketch:type="MSShapeGroup" fill="#EDD400" d="M172.483,41.01l-6.754-18.237l-2.232-6.159V41.01h-5.789V0.791
				h5.669l6.272,18.418l2.05,6.221V0.791h5.73V41.01H172.483"/>
			<path id="Fill-8" sketch:type="MSShapeGroup" fill="#EDD400" d="M190.272,41.734c-5.789,0-9.409-3.562-9.409-9.238v-3.564h5.852
				v3.443c0,2.536,1.146,3.985,3.377,3.985c2.292,0,3.378-1.388,3.378-3.623c0-3.502-1.75-6.1-5.127-9.662
				c-3.316-3.322-7.177-8.032-7.177-13.165c0-5.435,3.136-9.842,9.349-9.842c5.368,0,8.865,3.744,8.865,9.238v3.624h-5.789V9.306
				c0-2.234-1.026-3.744-3.076-3.744c-1.869,0-3.137,1.208-3.137,3.261c0,3.925,1.75,5.857,5.488,9.844
				c3.921,4.045,6.816,8.092,6.816,13.164C199.682,38.232,195.519,41.734,190.272,41.734"/>
			<g id="Group-12" sketch:type="MSShapeGroup">
				<path id="Fill-9" fill="#EDD400" d="M215.943,41.01l-4.463-16.727l-2.171,5.797v10.93h-6.392V0.791h6.392v18.902l6.634-18.902
					h6.334l-6.454,17.09l6.695,23.128H215.943"/>
				<path id="Fill-11" fill="#EDD400" d="M6.821,63.523v11.594h6.936v5.496H6.821v17.572H0.428V57.968h15.62v5.556H6.821"/>
			</g>
			<path id="Fill-13" sketch:type="MSShapeGroup" fill="#EDD400" d="M19.658,57.917h6.393v40.218h-6.393V57.917z"/>
			<path id="Fill-14" sketch:type="MSShapeGroup" fill="#EDD400" d="M30.057,98.135V57.916h6.393v34.422h9.228v5.797H30.057"/>
			<path id="Fill-15" sketch:type="MSShapeGroup" fill="#EDD400" d="M69.698,98.135V68.242l-1.266,8.455l-3.74,21.438h-4.824
				l-3.56-21.438l-1.206-8.455v29.893h-5.669V57.916h8.624l3.498,20.352l1.085,7.789l1.146-7.789l3.437-20.352h8.504v40.219H69.698"
				/>
			<path id="Fill-16" sketch:type="MSShapeGroup" fill="#EDD400" d="M93.222,98.135l-4.463-16.728l-2.17,5.797v10.931h-6.393V57.916
				h6.393v18.902l6.634-18.902h6.333l-6.454,17.09l6.695,23.129H93.222"/>
			<path id="Fill-17" sketch:type="MSShapeGroup" fill="#EDD400" d="M102.779,98.135V57.916h6.393v34.422h9.228v5.797H102.779"/>
			<path id="Fill-18" sketch:type="MSShapeGroup" fill="#EDD400" d="M134.761,98.135l-1.024-7.85h-5.85l-1.207,7.85h-5.851
				l6.694-40.219h7.057l6.695,40.219H134.761L134.761,98.135z M131.022,68.484L128.67,84.91h4.344L131.022,68.484L131.022,68.484z"
				/>
			<path id="Fill-19" sketch:type="MSShapeGroup" fill="#EDD400" d="M151.943,98.859c-5.79,0-9.41-3.562-9.41-9.238v-3.564h5.852
				V89.5c0,2.535,1.146,3.984,3.377,3.984c2.293,0,3.379-1.388,3.379-3.623c0-3.502-1.75-6.1-5.127-9.662
				c-3.318-3.32-7.178-8.031-7.178-13.164c0-5.435,3.137-9.842,9.35-9.842c5.367,0,8.864,3.743,8.864,9.238v3.623h-5.788v-3.623
				c0-2.234-1.027-3.744-3.076-3.744c-1.87,0-3.138,1.207-3.138,3.262c0,3.924,1.749,5.856,5.488,9.843
				c3.921,4.046,6.815,8.092,6.815,13.163C161.352,95.357,157.19,98.859,151.943,98.859"/>
			<path id="Fill-20" sketch:type="MSShapeGroup" fill="#EDD400" d="M172.946,98.859c-5.79,0-9.409-3.562-9.409-9.238v-3.564h5.852
				V89.5c0,2.535,1.145,3.984,3.376,3.984c2.292,0,3.378-1.388,3.378-3.623c0-3.502-1.749-6.1-5.127-9.662
				c-3.316-3.32-7.177-8.031-7.177-13.164c0-5.435,3.137-9.842,9.35-9.842c5.367,0,8.864,3.743,8.864,9.238v3.623h-5.789v-3.623
				c0-2.234-1.025-3.744-3.075-3.744c-1.87,0-3.138,1.207-3.138,3.262c0,3.924,1.75,5.856,5.488,9.843
				c3.921,4.046,6.816,8.092,6.816,13.163C182.356,95.357,178.193,98.859,172.946,98.859"/>
			<path id="Fill-21" sketch:type="MSShapeGroup" fill="#EDD400" d="M186.102,57.917h6.392v40.218h-6.392V57.917z"/>
			<path id="Fill-22" sketch:type="MSShapeGroup" fill="#EDD400" d="M209.813,98.135l-4.463-16.728l-2.17,5.797v10.931h-6.393
				V57.916h6.393v18.902l6.633-18.902h6.334l-6.453,17.09l6.695,23.129H209.813"/>
			<path id="Fill-23" sketch:type="MSShapeGroup" fill="#EDD400" d="M255.643,98.224c-2.473,0-3.438-2.416-3.438-5.555v-8.635
				c0-1.632-0.846-2.96-2.594-2.96h-3.137v16.969h-6.394V57.825h10.253c4.463,0,7.901,2.476,7.901,7.911v7.127
				c0,2.716-1.206,4.709-3.8,5.676c2.594,0.905,3.92,3.08,3.92,5.556v8.212c0,1.812,0.422,3.08,1.206,4.107v1.811H255.643
				L255.643,98.224z M251.963,65.918c0-1.691-0.664-2.596-2.172-2.596h-3.316v12.74h3.076c1.567,0,2.412-0.906,2.412-2.837V65.918
				L251.963,65.918z"/>
		</g>
	</g>
</g>
</svg>
