<svg viewBox="0 0 518 338" xmlns="http://www.w3.org/2000/svg"><g fill="#70bd95" fill-rule="evenodd" transform="translate(0-1)"><path d="m6.04 149h31.44v-11.16h-19.56v-25.56h17.16v-11.16h-17.16v-24.96h19.2v-11.16h-31.08v84m39.36 0h11.52v-52.8l18.84 52.8h10.68v-84h-11.52v50.88l-18.24-50.88h-11.28v84m83.16.84c10.92 0 19.68-8.28 19.68-20.64v-.24c0-9.48-2.88-15.12-14.04-28.32-7.68-9.12-9.24-11.64-9.24-16.32v-.24c0-5.28 3.84-8.52 8.64-8.52 3.84 0 7.08 1.32 11.64 4.08v-12.48c-3.72-1.92-7.32-3-12.96-3-10.8 0-19.2 8.16-19.2 20.52v.24c0 9.48 3.72 14.76 14.04 27.12 7.68 9.24 9.24 12.72 9.24 17.52v.24c0 5.76-3.84 8.64-8.88 8.64-4.08 0-8.4-1.68-13.68-4.92v12.48c4.44 2.28 9.24 3.84 14.76 3.84m35.88-.48h12.24l15.72-84.36h-11.64l-9.96 60.72-9.96-60.72h-12.12l15.72 84.36m34.08-.36h31.44v-11.16h-19.56v-25.56h17.16v-11.16h-17.16v-24.96h19.2v-11.16h-31.08v84m39.36 0h11.52v-52.8l18.84 52.8h10.68v-84h-11.52v50.88l-18.24-50.88h-11.28v84m63.84.84c10.92 0 19.68-8.28 19.68-20.64v-.24c0-9.48-2.88-15.12-14.04-28.32-7.68-9.12-9.24-11.64-9.24-16.32v-.24c0-5.28 3.84-8.52 8.64-8.52 3.84 0 7.08 1.32 11.64 4.08v-12.48c-3.72-1.92-7.32-3-12.96-3-10.8 0-19.2 8.16-19.2 20.52v.24c0 9.48 3.72 14.76 14.04 27.12 7.68 9.24 9.24 12.72 9.24 17.52v.24c0 5.76-3.84 8.64-8.88 8.64-4.08 0-8.4-1.68-13.68-4.92v12.48c4.44 2.28 9.24 3.84 14.76 3.84m26.52-.84h11.88v-23.76l4.32-10.56 12.12 34.32h13.08l-16.56-47.76 15.72-36.24h-13.44l-15.24 38.88v-38.88h-11.88v84m-322.2 106h11.88v-36.12h15.72v-11.16h-15.72v-25.56h17.76v-11.16h-29.64v84m37.56 0h11.76v-84h-11.76v84m22.32 0h29.04v-11.16h-17.16v-72.84h-11.88v84m35.4 0h11.28v-57.24l12.48 36.96h.36l12.48-36.96v57.24h11.4v-84h-12.12l-11.88 35.64-11.88-35.64h-12.12v84m58.08 0h11.88v-23.76l4.32-10.56 12.12 34.32h13.08l-16.56-47.76 15.72-36.24h-13.44l-15.24 38.88v-38.88h-11.88v84m47.16 0h29.04v-11.16h-17.16v-72.84h-11.88v84m30.84 0h11.52l3.36-18.72h15.84l3.36 18.72h11.88l-16.68-84.24h-12.6l-16.68 84.24m16.68-29.4l6.12-33.72 6.12 33.72h-12.24m48.24 30.24c10.92 0 19.68-8.28 19.68-20.64v-.24c0-9.48-2.88-15.12-14.04-28.32-7.68-9.12-9.24-11.64-9.24-16.32v-.24c0-5.28 3.84-8.52 8.64-8.52 3.84 0 7.08 1.32 11.64 4.08v-12.48c-3.72-1.92-7.32-3-12.96-3-10.8 0-19.2 8.16-19.2 20.52v.24c0 9.48 3.72 14.76 14.04 27.12 7.68 9.24 9.24 12.72 9.24 17.52v.24c0 5.76-3.84 8.64-8.88 8.64-4.08 0-8.4-1.68-13.68-4.92v12.48c4.44 2.28 9.24 3.84 14.76 3.84m38.64 0c10.92 0 19.68-8.28 19.68-20.64v-.24c0-9.48-2.88-15.12-14.04-28.32-7.68-9.12-9.24-11.64-9.24-16.32v-.24c0-5.28 3.84-8.52 8.64-8.52 3.84 0 7.08 1.32 11.64 4.08v-12.48c-3.72-1.92-7.32-3-12.96-3-10.8 0-19.2 8.16-19.2 20.52v.24c0 9.48 3.72 14.76 14.04 27.12 7.68 9.24 9.24 12.72 9.24 17.52v.24c0 5.76-3.84 8.64-8.88 8.64-4.08 0-8.4-1.68-13.68-4.92v12.48c4.44 2.28 9.24 3.84 14.76 3.84m27-.84h11.76v-84h-11.76v84m22.32 0h11.88v-23.76l4.32-10.56 12.12 34.32h13.08l-16.56-47.76 15.72-36.24h-13.44l-15.24 38.88v-38.88h-11.88v84m47.16 0h31.44v-11.16h-19.56v-25.56h17.16v-11.16h-17.16v-24.96h19.2v-11.16h-31.08v84m39.36 0h11.88v-30.6h3.12c.48 0 1.08-.12 1.56-.12l11.28 30.72h12.72l-12.72-34.56c6.6-3.96 11.28-11.28 11.28-22.44v-.84c0-17.88-10.56-26.16-25.44-26.16h-13.68v84m11.88-41.28v-31.68h1.68c7.92 0 13.68 3.84 13.68 15.36v.72c0 10.8-5.4 15.6-13.32 15.6h-2.04"/><path d="m7.12 338h4.085v-66.5h-3.705l-7.315 4.465v4.75l6.935-4.085v61.37m12.73 0h25.555v-4.085h-20.425l14.25-29.26c3.61-7.315 5.605-12.35 5.605-18.715v-.38c0-8.55-5.225-14.44-13.395-14.44-4.085 0-7.315 1.235-9.88 2.755v4.465c2.85-1.805 5.795-3.04 9.69-3.04 5.605 0 9.31 4.18 9.31 10.735 0 5.7-1.71 10.355-4.655 16.435l-16.05 32.775v2.755m49.875 0h4.18v-30.685h15.96v-3.8h-15.96v-28.21h17.575v-3.8h-21.755v66.5m29.735 0h4.18v-66.5h-4.18v66.5m15.485 0h20.9v-3.8h-16.72v-62.7h-4.18v66.5m26.98 0h3.99v-57.29l13.205 38.665h.38l13.205-38.665v57.29h3.99v-66.5h-5.03l-12.35 37.14-12.255-37.14h-5.13v66.5m45.41 0h22.895v-3.8h-18.715v-27.835h16.815v-3.8h-16.815v-27.26h18.43v-3.8h-22.61v66.5m30.875 0h4.18v-26.79h3.705c1.33 0 2.565-.095 3.705-.285l12.06 27.07h4.94l-12.73-28.12c7.22-2.755 11.495-9.405 11.495-18.62v-.19c0-12.445-7.505-19.57-19.09-19.57h-8.265v66.5m4.18-30.495v-32.2h3.895c9.03 0 15.1 5.13 15.1 15.865v.19c0 10.355-5.795 16.15-14.915 16.15h-4.085m51.68 30.495h4.085v-66.5h-3.705l-7.315 4.465v4.75l6.935-4.085v61.37m12.73 0h25.555v-4.085h-20.425l14.25-29.26c3.61-7.315 5.605-12.35 5.605-18.715v-.38c0-8.55-5.225-14.44-13.395-14.44-4.085 0-7.315 1.235-9.88 2.755v4.465c2.85-1.805 5.795-3.04 9.69-3.04 5.605 0 9.31 4.18 9.31 10.735 0 5.7-1.71 10.355-4.655 16.435l-16.06 32.775v2.755m49.875 0h7.885c12.35 0 21.28-11.12 21.28-32.395v-1.71c0-21.28-8.93-32.395-21.28-32.395h-7.885v66.5m4.18-3.8v-58.9h3.61c9.88 0 17.195 9.785 17.195 28.595v1.71c0 18.81-7.03 28.595-17.01 28.595h-3.8m28.31 3.8h4.18l3.895-18.62h17.29l3.895 18.62h4.37l-14.535-66.785h-4.56l-14.535 66.785m8.835-22.42l7.885-37.81 7.885 37.81h-15.77m48.07 23.09c3.325 0 5.415-.475 8.835-2.28v-32.395h-13.87v3.8h9.88v26.22c-1.615.665-2.66.855-4.56.855-9.03 0-16.06-9.88-16.06-29.26v-1.71c0-19.285 7.695-28.975 15.865-28.975 2.85 0 5.415.95 8.17 2.66v-4.56c-2.375-1.33-4.56-2.09-8.07-2.09-10.64 0-20.14 11.02-20.14 32.965v1.71c0 21.945 9.02 33.06 19.95 33.06m16.53-.665h4.18l3.895-18.62h17.29l3.895 18.62h4.37l-14.535-66.785h-4.56l-14.535 66.785m8.835-22.42l7.885-37.81 7.885 37.81h-15.77m32.775 22.42h4.18v-26.79h3.705c1.33 0 2.565-.095 3.705-.285l12.06 27.07h4.94l-12.73-28.12c7.22-2.755 11.495-9.405 11.495-18.62v-.19c0-12.445-7.505-19.57-19.09-19.57h-8.265v66.5m4.18-30.495v-32.2h3.895c9.02 0 15.1 5.13 15.1 15.865v.19c0 10.355-5.795 16.15-14.915 16.15h-4.085"/><path d="m6.441 44h4.704l1.372-7.644h6.468l1.372 7.644h4.851l-6.566-33.22c1.225-.931 2.058-2.401 2.058-4.165v-.441c0-2.94-2.156-5.194-4.851-5.194-2.744 0-4.9 2.254-4.9 5.194v.441c0 1.764.833 3.283 2.058 4.165l-6.566 33.22m9.408-34.692c-1.421 0-2.303-1.372-2.303-2.793v-.294c0-1.47.882-2.793 2.303-2.793 1.421 0 2.205 1.323 2.205 2.793v.294c0 1.421-.784 2.793-2.205 2.793m-2.597 22.687l2.499-13.769 2.499 13.769h-4.998m14.504 12h4.851v-12.495h1.274c.196 0 .441-.049.637-.049l4.606 12.544h5.194l-5.194-14.11c2.695-1.617 4.606-4.606 4.606-9.163v-.343c0-7.301-4.312-10.682-10.388-10.682h-5.586v34.3m4.851-16.856v-12.936h.686c3.234 0 5.586 1.568 5.586 6.272v.294c0 4.41-2.205 6.37-5.439 6.37h-.833m14.406 16.856h12.838v-4.557h-7.987v-10.437h7.01v-4.557h-7.01v-10.192h7.84v-4.557h-12.691v34.3m19.355 0h4.802v-29.743h4.606v-4.557h-14.06v4.557h4.655v29.743m17.248.343c4.459 0 8.04-3.381 8.04-8.428v-.098c0-3.871-1.176-6.174-5.733-11.564-3.136-3.724-3.773-4.753-3.773-6.664v-.098c0-2.156 1.568-3.479 3.528-3.479 1.568 0 2.891.539 4.753 1.666v-5.096c-1.519-.784-2.989-1.225-5.292-1.225-4.41 0-7.84 3.332-7.84 8.379v.098c0 3.871 1.519 6.03 5.733 11.07 3.136 3.773 3.773 5.194 3.773 7.154v.098c0 2.352-1.568 3.528-3.626 3.528-1.666 0-3.43-.686-5.586-2.01v5.096c1.813.931 3.773 1.568 6.03 1.568m26.803.098c4.802 0 8.183-3.332 8.183-10.09v-24.647h-4.753v25.09c0 3.577-1.372 5.194-3.43 5.194-2.01 0-3.381-1.617-3.381-5.194v-25.09h-4.802v24.647c0 6.762 3.381 10.09 8.183 10.09m15.484-.441h4.802v-29.743h4.606v-4.557h-14.06v4.557h4.655v29.743m12.201 0h4.606v-23.373l5.096 15.09h.147l5.096-15.09v23.373h4.655v-34.3h-4.949l-4.851 14.553-4.851-14.553h-4.949v34.3m22.1 0h4.704l1.372-7.644h6.468l1.372 7.644h4.851l-6.811-34.398h-5.145l-6.811 34.398m6.811-12l2.499-13.769 2.499 13.769h-4.998m14.504 12h4.704v-21.56l7.693 21.56h4.361v-34.3h-4.704v20.776l-7.448-20.776h-4.606v34.3m21.07 0h4.802v-34.3h-4.802v34.3m9.114 0h4.704v-21.56l7.693 21.56h4.361v-34.3h-4.704v20.776l-7.448-20.776h-4.606v34.3m30.919.294c2.107 0 3.675-.49 5.733-1.421v-17.738h-8.04v4.312h3.626v10.192c-.49.147-.686.196-1.127.196-3.087 0-6.03-2.989-6.03-12.25v-1.47c0-8.134 2.695-12.05 6.37-12.05 1.519 0 2.842.588 4.312 1.47v-5.096c-1.225-.588-2.646-.98-4.459-.98-6.37 0-11.123 5.684-11.123 16.856v1.078c0 11.76 4.851 16.905 10.731 16.905"/></g></svg>