<svg viewBox="0 0 95 96" xmlns="http://www.w3.org/2000/svg" xmlns:xlink="http://www.w3.org/1999/xlink"><defs><path id="0" d="m0 .071h94.94v95.24h-94.94v-95.24"/><mask id="1" fill="#fff"><use xlink:href="#0"/></mask></defs><g fill="#FFFFFF" fill-rule="evenodd"><path d="m47.47 91.72c-24.23 0-43.874-19.708-43.874-44.02 0-1.236.054-2.461.153-3.673h19.985l-1.321-3.22h-18.28c.134-.857.295-1.706.477-2.546h16.74l-1.323-3.219h-14.587c.274-.919.578-1.826.91-2.72h12.614l-1.321-3.219h-9.947c6.986-15.02 22.17-25.422 39.774-25.422 24.23 0 43.874 19.707 43.874 44.02 0 1.247-.054 2.48-.156 3.7h-19.995l1.323 3.22h18.287c-.135.858-.296 1.706-.479 2.546h-16.745l1.321 3.219h14.592c-.276.92-.579 1.827-.912 2.72h-12.618l1.323 3.218h9.947c-6.992 15-22.17 25.399-39.763 25.399m-.001-91.65c-26.22 0-47.47 21.325-47.47 47.629 0 26.309 21.254 47.634 47.47 47.634 26.22 0 47.47-21.325 47.47-47.634 0-26.305-21.255-47.629-47.47-47.629" mask="url(#1)"/><path d="m21.94 59.31l.156-6.268 2.183-.715-.002-.766-2.162.757.098-3.936-2.836 1.508c0 0-.048 1.573-.106 3.425l-1.322.463-.041.634 1.343-.439c-.073 2.409-.151 5.02-.15 5.2 0 0-.098 2.322 2.176 1.964 1.072-.168 2.317-.958 3.172-1.756l-.229-.394c0 0-2.291 2.028-2.282.323"/><path d="m49.04 51.08c-1.468-.095-1.703-2.02-3.191-1.989l-.547.006c0 0 4.394-2.103 3.654-4.434-.11-.339-.19-.656-.901-.956-1.032-.436-2.635.628-2.635.628.298.083.473.29.473.29 0 0 .972 1.16.056 2.627-.962 1.542-1.919 1.989-2.353 2.118l.236-6.463.163-3.586-2.925 1.778-.348 10.53c-.008.296-.017 1.374.304 1.943l.1.15c.019.023.038.046.059.069.614.628 1.398.473 2.161.145.098-.057.187-.095.351-.24-.042-.121-.237-.828-.19-1.856l.08-2.195.101.098c.842.797 2.34 2.704 3.598 2.72 1.257.016 2.413-.629 3.362-1.717l-.322-.354c-.278.256-.602.659-1.285.686"/><path d="m39.556 47.1c-.44-.297-1-.37-1.519-.331-.422.032-.89.206-1.266.363-2.61 1.087-3.704 4.86-3.607 6.882.097 2.02 1.589 2.227 1.589 2.227 1.786.301 3.766-.768 5.187-2l-.228-.393c0 0-2.05 1.657-2.941 1.108-.665-.425-.601-2.057-.616-2.687.026-1.684.404-4.596 1.376-4.913 1.441-.472 1.075 2.642.815 3.285.737-.323 1.324-.968 1.642-1.71.2-.604.163-1.386-.431-1.826"/><path d="m58.54 47.533c-.113-.372-.113-.847-.117-1.018l.07-3.822c.057-.726.092-1.482-.592-1.934-.896-.403-2.048.037-2.619.786-.72.916-1.316 2.052-1.679 3.083l.335-8.56-2.925 1.777-.348 10.531c-.009.295-.017 1.374.303 1.943l.1.15c.019.023.039.046.059.07.615.627 1.398.473 2.161.144.098-.056.186-.094.352-.239-.042-.121-.237-.828-.19-1.855l.087-2.237c.449-1.575 1.025-2.838 1.993-4.269 0 0 .051-.079.093-.051.043.026.029.1.029.1l-.111 5.132c0 0-.137 2.044 1.695 2.02 1.252-.018 2.165-.631 3.05-1.346l-.229-.393c-1.031.759-1.374.458-1.515-.01"/><path d="m28.602 58.31c-1.065.349-1.45-1.995-1.15-4.345 0 0 .22-3.296 1.42-3.69.496-.163.958.462 1.203 1.353.21.758.242 1.715.237 2.468-.01 1.531-.644 3.864-1.71 4.213m.263-8.561c0 0-3.628 1.1-4.401 5.386-.2 1.102-.02 2.044.168 2.657.541 1.771 2.223 1.637 3.478 1.226 1.345-.44 3.191-1.602 3.837-3.887.293-1.039.493-2.409.014-3.874-.808-2.48-3.096-1.508-3.096-1.508"/><path d="m64.15 46.668c-1.066.348-1.452-1.995-1.152-4.345 0 0 .222-3.298 1.42-3.691.496-.162.957.463 1.203 1.355.21.757.241 1.714.236 2.467-.009 1.533-.643 3.865-1.708 4.213m.262-8.562c0 0-3.628 1.102-4.401 5.386-.2 1.104-.019 2.044.168 2.658.541 1.77 2.223 1.637 3.477 1.226 1.345-.44 3.191-1.601 3.837-3.887.294-1.038.493-2.409.015-3.875-.809-2.479-3.096-1.508-3.096-1.508"/><path d="m15.783 54.916c-1.399-1.382-2.275-2.301-2.275-2.301-.284-.31-.627-.987-.649-1.573-.078-.705.208-1.679.864-2.073.348-.213.743-.22 1.089-.022 1.064.626.586 3.048.306 3.827.858-.333 1.437-1.025 1.821-1.866.251-.688.271-1.602-.306-2.16-1.116-1-2.992-.233-2.992-.233-1.477.511-2.638 1.525-3.191 2.965-.553 1.44.041 2.67.965 3.663.926.992 1.472 1.439 2.924 2.733 1.693 1.509 1.296 4.317.036 5.365-.746.653-1.971 1.123-2.927.619-.637-.339-.978-.992-1.082-1.726-.253-1.577.998-3.359.998-3.359-.243.079-.485.153-.726.233-1.487.594-2.967 1.759-3 3.492.048.761.359 1.581 1.023 1.993 2.228 1.382 5.783-.268 7.775-1.822 1.63-1.27 2.073-3.112 1.534-4.786 0 0-.186-.999-2.184-2.972"/><path d="m71.63 43.29c-.109-.36-.111-.821-.114-.986l.457-12.144-2.925 1.778-.328 11.09c0 0-.135 1.984 1.643 1.958 1.214-.018 2.099-.612 2.958-1.306l-.222-.381c-1 .735-1.333.444-1.469-.011"/><path d="m87.47 38.569c-1.031.757-1.374.458-1.516-.01-.112-.372-.112-.847-.117-1.018l.071-3.824c.057-.726.092-1.481-.592-1.933-.896-.404-2.048.037-2.619.785-.598.763-1.111 1.679-1.477 2.56.049-.687.044-1.382-.6-1.808-.896-.403-2.049.037-2.619.787-.633.807-1.17 1.783-1.538 2.708l.124-2.761-2.925 1.778-.178 5.073c-.009.295-.018 1.374.303 1.943l.1.151c.019.022.039.045.059.068.614.629 1.398.473 2.161.145.098-.057.187-.094.351-.239-.043-.121-.237-.829-.19-1.856l.12-2.655c.43-1.371.985-2.524 1.858-3.817 0 0 .052-.079.095-.052.042.027.03.022.03.022l-.154 4.74c-.008.295-.017 1.375.304 1.945l.1.149c.018.023.038.047.058.07.615.627 1.399.472 2.162.144.098-.057.186-.094.35-.239-.042-.122-.237-.829-.19-1.857l.136-2.804c.424-1.3.968-2.416 1.807-3.659 0 0 .051-.079.094-.052.042.027.027.101.027.101l-.109 5.133c0 0-.138 2.045 1.694 2.02 1.252-.018 2.165-.632 3.05-1.346l-.229-.393"/><path d="m35.731 17.748h4.924v1.59h-2.858v1.658h2.032v1.589h-2.032v3.364h-2.066v-8.201"/><path d="m41.975 17.748h2.066v8.201h-2.066v-8.201"/><path d="m45.821 17.748h2.066v6.749h2.801v1.452h-4.867v-8.201"/><path d="m52.03 17.748h2.892l.884 4.595h.023l1.044-4.595h2.813v8.201h-2.067v-6.06h-.022l-1.413 6.06h-1.251l-1.297-6.266h-.023v6.266h-1.584v-8.201"/><path d="m24.463 69.29h4.924v1.59h-2.857v1.659h2.032v1.588h-2.032v3.364h-2.067v-8.2"/><path d="m30.673 69.29h5.142v1.59h-3.076v1.659h2.066v1.588h-2.066v1.705h3.076v1.658h-5.142v-8.2"/><path d="m38.422 74.892c.298.692.619 1.175 1.412 1.175.471 0 .849-.3.849-.691 0-1.67-3.627-.749-3.627-3.916 0-1.233 1.228-2.327 2.64-2.327 1.377 0 2.411.783 2.766 1.808l-1.641.691c-.219-.484-.528-.91-1.125-.91-.356 0-.712.219-.712.691 0 1.164 3.697.898 3.697 3.466 0 1.682-1.377 2.776-2.985 2.776-1.389 0-2.502-.737-2.984-2.073l1.711-.692"/><path d="m43.11 69.29h5.763v1.59h-1.849v6.61h-2.066v-6.61h-1.849v-1.59"/><path d="m49.775 69.29h2.066v8.2h-2.066v-8.2"/><path d="m52.989 69.29h2.078l.964 5.713h.023l1.377-5.713h1.722l-2.238 8.2h-2.101l-1.826-8.2"/><path d="m61.36 74.38h1.32l-.596-3.34h-.023l-.7 3.34m-.436-5.09h2.709l1.745 8.2h-2.089l-.321-1.658h-1.894l-.356 1.658h-1.711l1.917-8.2"/><path d="m66.49 69.29h2.066v6.75h2.8v1.45h-4.866v-8.2"/></g></svg>