<?xml version="1.0" encoding="utf-8"?>
<!-- Generator: Adobe Illustrator 16.0.0, SVG Export Plug-In . SVG Version: 6.00 Build 0)  -->
<!DOCTYPE svg PUBLIC "-//W3C//DTD SVG 1.1//EN" "http://www.w3.org/Graphics/SVG/1.1/DTD/svg11.dtd">
<svg version="1.1" id="Layer_1" xmlns:sketch="http://www.bohemiancoding.com/sketch/ns"
	 xmlns="http://www.w3.org/2000/svg" xmlns:xlink="http://www.w3.org/1999/xlink" x="0px" y="0px" width="95px" height="96px"
	 viewBox="0 0 95 96" enable-background="new 0 0 95 96" xml:space="preserve">
<title>sff_logo_black</title>
<desc>Created with Sketch.</desc>
<g id="Page-1" sketch:type="MSPage">
	<g id="Slim" transform="translate(-122.000000, -18.000000)" sketch:type="MSArtboardGroup">
		<g id="PRESENTERAS-AV-_x2B_-sff_x5F_logo_x5F_black" transform="translate(91.000000, 19.000000)" sketch:type="MSLayerGroup">
			<g id="sff_logo_black" transform="translate(31.000000, -1.000000)">
				<g id="Group-3">
					<g id="Clip-2">
					</g>
					<defs>
						<filter id="Adobe_OpacityMaskFilter" filterUnits="userSpaceOnUse" x="0" y="0.071" width="94.943" height="95.263">
							<feColorMatrix  type="matrix" values="1 0 0 0 0  0 1 0 0 0  0 0 1 0 0  0 0 0 1 0"/>
						</filter>
					</defs>
					<mask maskUnits="userSpaceOnUse" x="0" y="0.071" width="94.943" height="95.263" id="mask-2">
						<g filter="url(#Adobe_OpacityMaskFilter)">
							<path id="path-1" fill="#FFFFFF" d="M0,0.071h94.943V95.31H0V0.071z"/>
						</g>
					</mask>
					<path id="Fill-1" sketch:type="MSShapeGroup" mask="url(#mask-2)" fill="#EDD400" d="M47.471,91.723
						c-24.23,0-43.874-19.709-43.874-44.022c0-1.236,0.054-2.461,0.153-3.673h19.985l-1.321-3.22H4.134
						c0.134-0.856,0.295-1.706,0.477-2.546h16.74l-1.323-3.22H5.442c0.274-0.919,0.578-1.826,0.91-2.72h12.615l-1.321-3.219H7.697
						C14.684,14.087,29.865,3.681,47.471,3.681c24.23,0,43.874,19.707,43.874,44.019c0,1.247-0.054,2.48-0.155,3.7H71.193
						l1.323,3.22h18.288c-0.136,0.857-0.297,1.706-0.48,2.546H73.58l1.32,3.22h14.592c-0.275,0.92-0.578,1.827-0.911,2.72H75.963
						l1.323,3.218h9.947C80.242,81.326,65.067,91.723,47.471,91.723L47.471,91.723z M47.47,0.071C21.254,0.071,0,21.396,0,47.7
						c0,26.31,21.254,47.634,47.47,47.634c26.219,0,47.473-21.324,47.473-47.634C94.943,21.396,73.689,0.071,47.47,0.071
						L47.47,0.071z"/>
				</g>
				<path id="Fill-4" sketch:type="MSShapeGroup" fill="#EDD400" d="M21.94,59.311l0.156-6.27l2.183-0.714l-0.002-0.766
					l-2.162,0.757l0.098-3.937l-2.836,1.507c0,0-0.048,1.574-0.105,3.426l-1.322,0.463l-0.041,0.635l1.343-0.439
					c-0.073,2.408-0.15,5.021-0.15,5.199c0,0-0.098,2.322,2.176,1.965c1.071-0.168,2.316-0.959,3.172-1.756l-0.229-0.395
					C24.222,58.986,21.931,61.016,21.94,59.311"/>
				<path id="Fill-5" sketch:type="MSShapeGroup" fill="#EDD400" d="M49.039,51.083c-1.467-0.095-1.703-2.016-3.19-1.989
					L45.301,49.1c0,0,4.394-2.104,3.654-4.434c-0.109-0.339-0.189-0.656-0.9-0.956c-1.032-0.436-2.635,0.627-2.635,0.627
					c0.298,0.083,0.473,0.291,0.473,0.291s0.973,1.161,0.057,2.627c-0.962,1.542-1.919,1.989-2.353,2.118l0.235-6.463l0.163-3.586
					l-2.925,1.778l-0.349,10.53c-0.008,0.295-0.018,1.373,0.304,1.942l0.1,0.15c0.019,0.023,0.038,0.046,0.059,0.069
					c0.615,0.628,1.398,0.473,2.161,0.145c0.098-0.057,0.187-0.095,0.351-0.239c-0.042-0.121-0.237-0.828-0.19-1.855l0.08-2.194
					l0.101,0.098c0.842,0.797,2.341,2.704,3.598,2.721c1.257,0.016,2.413-0.63,3.362-1.718l-0.322-0.354
					C50.047,50.653,49.723,51.057,49.039,51.083"/>
				<path id="Fill-6" sketch:type="MSShapeGroup" fill="#EDD400" d="M39.556,47.104c-0.44-0.297-1.003-0.37-1.519-0.331
					c-0.422,0.032-0.89,0.207-1.266,0.363c-2.61,1.087-3.704,4.86-3.607,6.882c0.096,2.021,1.589,2.228,1.589,2.228
					c1.786,0.302,3.766-0.769,5.188-2.005l-0.228-0.393c0,0-2.05,1.656-2.941,1.107c-0.665-0.425-0.601-2.057-0.617-2.688
					c0.026-1.684,0.404-4.596,1.376-4.912c1.441-0.473,1.075,2.643,0.815,3.284c0.737-0.323,1.324-0.968,1.642-1.71
					C40.188,48.326,40.15,47.543,39.556,47.104"/>
				<path id="Fill-7" sketch:type="MSShapeGroup" fill="#EDD400" d="M58.541,47.533c-0.112-0.372-0.113-0.847-0.117-1.018
					l0.07-3.822c0.057-0.726,0.092-1.482-0.592-1.934c-0.896-0.403-2.048,0.038-2.619,0.786c-0.72,0.916-1.315,2.052-1.68,3.083
					l0.335-8.561l-2.925,1.777l-0.348,10.531c-0.01,0.295-0.018,1.375,0.303,1.943l0.1,0.15c0.02,0.023,0.039,0.046,0.06,0.07
					c0.614,0.627,1.397,0.473,2.161,0.143c0.098-0.056,0.186-0.094,0.352-0.238c-0.043-0.121-0.237-0.828-0.19-1.855l0.087-2.236
					c0.449-1.575,1.025-2.838,1.993-4.27c0,0,0.051-0.079,0.093-0.051c0.043,0.026,0.029,0.1,0.029,0.1l-0.111,5.132
					c0,0-0.138,2.043,1.694,2.017c1.252-0.018,2.165-0.631,3.05-1.346l-0.229-0.393C59.025,48.302,58.683,48.001,58.541,47.533"/>
				<path id="Fill-8" sketch:type="MSShapeGroup" fill="#EDD400" d="M28.602,58.306c-1.065,0.349-1.45-1.995-1.15-4.346
					c0,0,0.221-3.296,1.42-3.689c0.496-0.163,0.958,0.462,1.203,1.354c0.209,0.759,0.242,1.715,0.237,2.469
					C30.301,55.624,29.667,57.957,28.602,58.306L28.602,58.306z M28.864,49.744c0,0-3.627,1.102-4.401,5.387
					c-0.2,1.103-0.02,2.043,0.168,2.657c0.541,1.771,2.223,1.637,3.478,1.226c1.345-0.439,3.191-1.602,3.837-3.887
					c0.293-1.039,0.493-2.408,0.014-3.875C31.152,48.772,28.864,49.744,28.864,49.744L28.864,49.744z"/>
				<path id="Fill-9" sketch:type="MSShapeGroup" fill="#EDD400" d="M64.154,46.668c-1.065,0.348-1.451-1.996-1.151-4.345
					c0,0,0.222-3.298,1.421-3.691c0.496-0.162,0.957,0.463,1.203,1.355c0.209,0.756,0.24,1.714,0.236,2.467
					C65.854,43.988,65.22,46.32,64.154,46.668L64.154,46.668z M64.416,38.106c0,0-3.628,1.102-4.4,5.386
					c-0.199,1.104-0.02,2.044,0.168,2.658c0.541,1.771,2.223,1.637,3.478,1.226c1.345-0.44,3.19-1.601,3.837-3.887
					c0.295-1.039,0.492-2.409,0.015-3.875C66.703,37.135,64.416,38.106,64.416,38.106L64.416,38.106z"/>
				<path id="Fill-10" sketch:type="MSShapeGroup" fill="#EDD400" d="M15.783,54.916c-1.399-1.382-2.275-2.301-2.275-2.301
					c-0.285-0.311-0.627-0.987-0.649-1.572c-0.078-0.705,0.208-1.68,0.864-2.074c0.348-0.213,0.743-0.219,1.089-0.021
					c1.064,0.627,0.585,3.049,0.306,3.827c0.858-0.333,1.437-1.025,1.821-1.866c0.251-0.688,0.271-1.602-0.306-2.159
					c-1.116-1.002-2.992-0.233-2.992-0.233c-1.477,0.512-2.638,1.525-3.191,2.965c-0.552,1.441,0.041,2.671,0.965,3.664
					c0.926,0.992,1.472,1.439,2.924,2.733c1.693,1.509,1.296,4.316,0.036,5.364c-0.746,0.653-1.971,1.123-2.927,0.619
					c-0.637-0.339-0.978-0.992-1.082-1.726c-0.253-1.577,0.998-3.358,0.998-3.358c-0.243,0.079-0.485,0.152-0.726,0.232
					c-1.487,0.595-2.968,1.76-3.004,3.492c0.047,0.762,0.359,1.582,1.022,1.994c2.228,1.382,5.783-0.269,7.775-1.822
					c1.63-1.27,2.073-3.111,1.535-4.785C17.967,57.889,17.78,56.889,15.783,54.916"/>
				<path id="Fill-11" sketch:type="MSShapeGroup" fill="#EDD400" d="M71.626,43.294c-0.109-0.359-0.11-0.82-0.114-0.986
					l0.457-12.144l-2.925,1.777l-0.327,11.091c0,0-0.135,1.984,1.643,1.958c1.215-0.017,2.1-0.612,2.958-1.306l-0.222-0.38
					C72.095,44.041,71.762,43.75,71.626,43.294"/>
				<path id="Fill-12" sketch:type="MSShapeGroup" fill="#EDD400" d="M87.472,38.569c-1.031,0.757-1.374,0.458-1.517-0.01
					c-0.111-0.373-0.111-0.847-0.117-1.018l0.071-3.824c0.058-0.726,0.093-1.481-0.592-1.933c-0.896-0.404-2.048,0.037-2.619,0.785
					c-0.599,0.763-1.111,1.68-1.478,2.561c0.05-0.687,0.045-1.382-0.6-1.808c-0.896-0.403-2.049,0.037-2.619,0.787
					c-0.633,0.807-1.17,1.783-1.538,2.708l0.124-2.761l-2.924,1.778l-0.179,5.074c-0.009,0.294-0.019,1.374,0.303,1.942l0.101,0.151
					c0.019,0.022,0.038,0.045,0.059,0.068c0.614,0.628,1.398,0.473,2.162,0.145c0.098-0.057,0.186-0.094,0.351-0.239
					c-0.043-0.121-0.237-0.829-0.19-1.855l0.119-2.656c0.432-1.371,0.986-2.524,1.859-3.817c0,0,0.051-0.079,0.094-0.052
					c0.042,0.027,0.03,0.022,0.03,0.022l-0.153,4.74c-0.009,0.295-0.018,1.375,0.303,1.944l0.1,0.149
					c0.02,0.023,0.039,0.047,0.059,0.07c0.615,0.627,1.4,0.472,2.162,0.145c0.1-0.057,0.186-0.094,0.352-0.239
					c-0.043-0.122-0.238-0.829-0.191-1.857l0.137-2.804c0.424-1.3,0.968-2.416,1.807-3.658c0,0,0.051-0.079,0.094-0.052
					c0.042,0.027,0.027,0.101,0.027,0.101l-0.109,5.133c0,0-0.139,2.045,1.693,2.019c1.252-0.018,2.166-0.632,3.051-1.346
					L87.472,38.569"/>
				<path id="Fill-13" sketch:type="MSShapeGroup" fill="#EDD400" d="M35.73,17.748h4.924v1.59h-2.858v1.658h2.032v1.589h-2.032
					v3.364H35.73V17.748"/>
				<path id="Fill-14" sketch:type="MSShapeGroup" fill="#EDD400" d="M41.975,17.748h2.066v8.201h-2.066V17.748z"/>
				<path id="Fill-15" sketch:type="MSShapeGroup" fill="#EDD400" d="M45.821,17.748h2.066v6.749h2.801v1.452h-4.867V17.748"/>
				<path id="Fill-16" sketch:type="MSShapeGroup" fill="#EDD400" d="M52.031,17.748h2.893l0.884,4.595h0.022l1.044-4.595h2.813
					v8.201h-2.066v-6.058h-0.022l-1.413,6.058h-1.25l-1.297-6.266h-0.023v6.266h-1.584V17.748"/>
				<path id="Fill-17" sketch:type="MSShapeGroup" fill="#EDD400" d="M24.463,69.295h4.924v1.59h-2.857v1.658h2.032v1.588h-2.032
					v3.363h-2.066V69.295"/>
				<path id="Fill-18" sketch:type="MSShapeGroup" fill="#EDD400" d="M30.673,69.295h5.142v1.59h-3.076v1.658h2.066v1.588h-2.066
					v1.705h3.076v1.658h-5.142V69.295"/>
				<path id="Fill-19" sketch:type="MSShapeGroup" fill="#EDD400" d="M38.422,74.892c0.298,0.692,0.619,1.175,1.412,1.175
					c0.471,0,0.849-0.299,0.849-0.691c0-1.67-3.627-0.748-3.627-3.915c0-1.233,1.229-2.327,2.64-2.327
					c1.377,0,2.411,0.783,2.766,1.809l-1.641,0.691c-0.219-0.484-0.528-0.91-1.125-0.91c-0.356,0-0.712,0.219-0.712,0.691
					c0,1.163,3.697,0.898,3.697,3.466c0,1.683-1.377,2.776-2.985,2.776c-1.389,0-2.502-0.736-2.984-2.072L38.422,74.892"/>
				<path id="Fill-20" sketch:type="MSShapeGroup" fill="#EDD400" d="M43.105,69.295h5.764v1.59H47.02v6.609h-2.066v-6.609h-1.849
					V69.295"/>
				<path id="Fill-21" sketch:type="MSShapeGroup" fill="#EDD400" d="M49.775,69.295h2.065v8.199h-2.065V69.295z"/>
				<path id="Fill-22" sketch:type="MSShapeGroup" fill="#EDD400" d="M52.989,69.295h2.077l0.965,5.713h0.023l1.377-5.713h1.723
					l-2.238,8.199h-2.102L52.989,69.295"/>
				<path id="Fill-23" sketch:type="MSShapeGroup" fill="#EDD400" d="M61.357,74.385h1.32l-0.597-3.34h-0.022L61.357,74.385
					L61.357,74.385z M60.922,69.295h2.709l1.744,8.199h-2.089l-0.321-1.658h-1.894l-0.356,1.658h-1.711L60.922,69.295L60.922,69.295
					z"/>
				<path id="Fill-24" sketch:type="MSShapeGroup" fill="#EDD400" d="M66.489,69.295h2.066v6.75h2.8v1.449h-4.866V69.295"/>
			</g>
		</g>
	</g>
</g>
</svg>
