<svg viewBox="0 0 175 39" xmlns="http://www.w3.org/2000/svg"><g fill="none" fill-rule="evenodd"><path d="m4.665 30c1.573 1.94 3.931 3.355 7.548 3.355 3.616 0 5.189-1.782 5.189-3.093 0-1.678-1.886-2.096-2.725-2.253-.891-.21-5.189-.996-6.133-1.258-6.238-1.468-7.391-5.085-7.391-7.443 0-4.455 4.04-8.544 11.217-8.544 3.984 0 6.867 1.258 8.649 2.516 1.311.838 2.149 1.73 2.673 2.358l-4.455 4.141c-.734-1.415-2.516-3.984-7.129-3.984-2.988 0-4.35 1.311-4.35 2.674 0 1.887 1.939 2.411 5.294 2.987 5.451.996 6.971 1.258 8.648 2.569 1.626 1.258 2.674 3.355 2.674 5.557 0 4.088-3.669 8.964-11.794 8.964-4.665 0-9.278-1.468-12.58-4.666l4.665-3.879m21.703-18.451h6.238v2.936c2.097-2.621 5.819-3.722 8.282-3.722 2.463 0 5.556.944 7.286 4.04 1.048-1.467 3.774-4.04 8.387-4.04 2.621 0 5.137.734 6.919 2.674 2.097 2.306 2.044 5.084 2.044 7.81v16.511h-6.238v-14.467c0-2.463.368-6.605-4.403-6.605-1.992 0-3.616 1.101-4.455 2.464-1.206 1.939-1.362 4.04-1.362 6.29v12.318h-6.238v-14.624c0-1.887 0-2.569-.21-3.355-.472-1.73-1.835-3.093-4.04-3.093-1.887 0-3.722 1.101-4.823 3.041-1.101 2.044-1.153 4.508-1.153 7.08v10.954h-6.238v-26.21m41.992 0h6.238v26.21h-6.238v-26.21m0-10.431h6.238v6.343h-6.238v-6.343m26.995 19.709c-.472-1.73-2.307-4.456-5.923-4.456-3.617 0-6.5 2.883-6.5 8.125 0 4.717 2.465 8.178 6.605 8.178 3.984 0 5.504-3.041 6.29-5.137l5.4 2.831c-2.045 5.661-7.234 8.177-11.794 8.177-7.286 0-12.999-5.608-12.999-13.891 0-8.02 5.766-13.891 13.208-13.891 6.605 0 9.96 4.403 11.323 7.443l-5.609 2.621m13.526-20.08v20.81l10.222-10.01h8.02l-10.01 10.01 11.01 16.196h-7.652l-7.916-11.741-3.67 3.616v8.125h-6.237v-37.01h6.237m35.803 20.547c-.577-4.089-3.093-5.504-5.871-5.504-3.355 0-5.661 1.94-6.395 5.504h12.265m7.129 10.588c-3.249 4.351-7.443 6.658-12.79 6.658-6.867 0-13.472-4.352-13.472-13.995 0-8.807 5.662-13.786 13.05-13.786 6.919 0 9.802 4.141 10.327 4.927 2.149 3.041 2.62 7.601 2.673 10.222h-19.394c.733 4.141 3.302 6.5 7.443 6.5 4.299 0 6.03-2.516 6.815-3.616l5.346 3.092m8.233-20.338v3.722c.786-1.364 2.516-4.456 8.386-4.299v6.447c-1.362.052-3.721.105-5.66 1.573-2.674 2.044-2.726 4.718-2.726 9.07v9.697h-6.08v-26.21h6.08m11.04 23.03h.599c.38 0 .665-.057.665-.469 0-.365-.389-.421-.697-.421h-.567v.89m-.671-1.416h1.279c.85 0 1.328.267 1.328 1 0 .624-.389.866-.891.907l.907 1.481h-.704l-.825-1.449h-.422v1.449h-.671v-3.391m1.206 4.087c1.254 0 2.283-1 2.283-2.388 0-1.375-1.028-2.371-2.283-2.371-1.27 0-2.283.995-2.283 2.371 0 1.385 1.012 2.388 2.283 2.388m0-5.406c1.643 0 3.108 1.181 3.108 3.02 0 1.846-1.466 3.035-3.108 3.035-1.643 0-3.108-1.19-3.108-3.035 0-1.837 1.465-3.02 3.108-3.02" fill="#70bd95"/></g></svg>