<?xml version="1.0" encoding="UTF-8" standalone="no"?>
<svg width="175px" height="44px" viewBox="0 0 175 44" version="1.1" xmlns="http://www.w3.org/2000/svg" xmlns:xlink="http://www.w3.org/1999/xlink" xmlns:sketch="http://www.bohemiancoding.com/sketch/ns">
    <!-- Generator: Sketch 3.3.3 (12081) - http://www.bohemiancoding.com/sketch -->
    <title>Group + Fill 13 + Fill 14 + Fill 15</title>
    <desc>Created with Sketch.</desc>
    <defs></defs>
    <g id="New-design" stroke="none" stroke-width="1" fill="none" fill-rule="evenodd" sketch:type="MSPage">
        <g id="Slim" sketch:type="MSArtboardGroup" transform="translate(-89.000000, -4004.000000)" fill="#FFFFFF">
            <g id="footer" sketch:type="MSLayerGroup" transform="translate(-11.000000, 3883.000000)">
                <g id="ihopsnickrat-av:-+-Group-+-Fill-13-+-Fill-14-+-Fill-15-+-Bitmap" transform="translate(11.000000, 41.000000)" sketch:type="MSShapeGroup">
                    <g id="Group-+-Fill-13-+-Fill-14-+-Fill-15-+-Bitmap" transform="translate(89.000000, 80.000000)">
                        <g id="Group-+-Fill-13-+-Fill-14-+-Fill-15">
                            <g id="Group" transform="translate(47.934783, 12.896552)">
                                <path d="M8.07383691,17.1359767 L8.16700146,17.1359767 L13.3489217,1.27882738 C13.5660937,0.558193832 14.0312805,0.182141301 14.6519536,0.182141301 C15.4277948,0.182141301 15.9861462,0.746380667 15.9861462,1.49848573 C15.9861462,1.68635143 15.9553033,1.90568864 15.8621388,2.18764775 L9.74952691,20.2070189 C9.34602584,21.3351765 8.91168191,21.8053224 8.04299404,21.8053224 C7.20514904,21.8053224 6.73964426,21.3351765 6.36730404,20.2070189 L0.254692161,2.18764775 C0.161527613,1.90568864 0.130684742,1.68635143 0.130684742,1.49848573 C0.130684742,0.746380667 0.689036097,0.182141301 1.46487739,0.182141301 C2.11639329,0.182141301 2.55073723,0.558193832 2.79907003,1.27882738 L8.07383691,17.1359767" id="Fill-3"></path>
                                <path d="M19.3410238,7.89137876 C19.3410238,7.01370876 19.8996932,6.48094091 20.6443736,6.48094091 C21.3890541,6.48094091 21.9477234,7.01370876 21.9477234,7.89137876 L21.9477234,20.3952057 C21.9477234,21.2725546 21.3890541,21.8053224 20.6443736,21.8053224 C19.8996932,21.8053224 19.3410238,21.2725546 19.3410238,20.3952057 L19.3410238,7.89137876" id="Fill-4"></path>
                                <path d="M25.7496637,7.89137876 C25.7496637,7.01370876 26.308015,6.48094091 27.0526955,6.48094091 C27.7973759,6.48094091 28.3560453,7.01370876 28.3560453,7.89137876 L28.3560453,8.33005319 L28.3868881,8.33005319 C29.1007257,7.17042408 30.5280829,6.29307522 32.5449523,6.29307522 C35.7720069,6.29307522 37.6957118,8.51791888 37.6957118,11.9338632 L37.6957118,20.3952057 C37.6957118,21.2725546 37.1370424,21.8053224 36.392362,21.8053224 C35.6476815,21.8053224 35.0890122,21.2725546 35.0890122,20.3952057 L35.0890122,12.5607244 C35.0890122,10.1476939 34.0031524,8.73757724 31.769111,8.73757724 C29.7522416,8.73757724 28.3560453,10.1788443 28.3560453,12.4040091 L28.3560453,20.3952057 C28.3560453,21.2725546 27.7973759,21.8053224 27.0526955,21.8053224 C26.308015,21.8053224 25.7496637,21.2725546 25.7496637,20.3952057 L25.7496637,7.89137876" id="Fill-5"></path>
                                <path d="M41.5065551,7.89137876 C41.5065551,7.01370876 42.0649065,6.48094091 42.809587,6.48094091 C43.5542674,6.48094091 44.1129367,7.01370876 44.1129367,7.89137876 L44.1129367,8.33005319 L44.1437796,8.33005319 C44.8576172,7.17042408 46.2849744,6.29307522 48.3018438,6.29307522 C51.5285804,6.29307522 53.4526032,8.51791888 53.4526032,11.9338632 L53.4526032,20.3952057 C53.4526032,21.2725546 52.8939339,21.8053224 52.1492534,21.8053224 C51.404573,21.8053224 50.8462216,21.2725546 50.8462216,20.3952057 L50.8462216,12.5607244 C50.8462216,10.1476939 49.7600438,8.73757724 47.5260025,8.73757724 C45.5091331,8.73757724 44.1129367,10.1788443 44.1129367,12.4040091 L44.1129367,20.3952057 C44.1129367,21.2725546 43.5542674,21.8053224 42.809587,21.8053224 C42.0649065,21.8053224 41.5065551,21.2725546 41.5065551,20.3952057 L41.5065551,7.89137876" id="Fill-6"></path>
                                <path d="M66.456212,17.1985986 C66.7045448,16.3838717 66.7977094,15.5691447 66.7977094,14.1275565 C66.7977094,12.6859682 66.7045448,11.9027128 66.456212,11.0876647 C65.9598644,9.58345458 64.7496791,8.73757724 63.10515,8.73757724 C61.4606208,8.73757724 60.2507535,9.58345458 59.7540879,11.0876647 C59.5060731,11.9027128 59.4129085,12.6859682 59.4129085,14.1275565 C59.4129085,15.5691447 59.5060731,16.3838717 59.7540879,17.1985986 C60.2507535,18.7028087 61.4606208,19.5490072 63.10515,19.5490072 C64.7496791,19.5490072 65.9598644,18.7028087 66.456212,17.1985986 L66.456212,17.1985986 Z M57.2408709,17.9507037 C56.8993735,16.9166395 56.7445233,15.8825753 56.7445233,14.1275565 C56.7445233,12.4040091 56.8993735,11.369945 57.2408709,10.3355596 C58.0475551,7.76581382 60.2195927,6.29307522 63.10515,6.29307522 C65.9910252,6.29307522 68.1630628,7.76581382 68.969747,10.3355596 C69.3109264,11.369945 69.4660946,12.4040091 69.4660946,14.1275565 C69.4660946,15.8825753 69.3109264,16.9166395 68.969747,17.9507037 C68.1630628,20.4892991 65.9910252,21.9935092 63.10515,21.9935092 C60.2195927,21.9935092 58.0475551,20.4892991 57.2408709,17.9507037 L57.2408709,17.9507037 Z" id="Fill-7"></path>
                                <path d="M76.2429411,20.1758685 L71.7440156,8.39267509 C71.650851,8.14186635 71.6196902,7.95400066 71.6196902,7.73466344 C71.6196902,7.04518028 72.1163558,6.48094091 72.8918791,6.48094091 C73.5125521,6.48094091 73.9160532,6.85699344 74.1332252,7.42123281 L77.9806348,17.8569314 L78.0426386,17.8569314 L81.7972017,7.42123281 C82.0143736,6.85699344 82.4178747,6.48094091 83.0382297,6.48094091 C83.814071,6.48094091 84.3104187,7.04518028 84.3104187,7.73466344 C84.3104187,7.95400066 84.2795758,8.14186635 84.1864113,8.39267509 L79.6563248,20.1758685 C79.1908201,21.3981195 78.787319,21.8053224 77.949474,21.8053224 C77.111947,21.8053224 76.7084459,21.3981195 76.2429411,20.1758685" id="Fill-8"></path>
                                <path d="M96.2170388,12.7485901 C96.3410462,12.7485901 96.4030499,12.6859682 96.4030499,12.5607244 C96.4030499,11.8712413 96.3410462,11.3384734 96.1858779,10.8683275 C95.6895303,9.36411736 94.4481842,8.51791888 92.7728122,8.51791888 C91.0971222,8.51791888 89.8560941,9.36411736 89.3594285,10.8683275 C89.2045782,11.3384734 89.1422565,11.8712413 89.1422565,12.5607244 C89.1422565,12.6859682 89.2045782,12.7485901 89.3285856,12.7485901 L96.2170388,12.7485901 L96.2170388,12.7485901 Z M86.9702188,17.8254599 C86.6602003,16.885168 86.4738712,15.8199534 86.4738712,14.0334631 C86.4738712,12.2472938 86.6290395,11.1817581 86.939376,10.2417874 C87.777221,7.64057002 89.9180978,6.1989818 92.7416513,6.1989818 C95.6583694,6.1989818 97.7684034,7.64057002 98.5750875,10.2103158 C98.9162669,11.2132296 99.0714352,12.3725376 99.0714352,13.8455974 C99.0714352,14.4409871 98.6682521,14.84819 98.047579,14.84819 L89.3285856,14.84819 C89.2045782,14.84819 89.1422565,14.911133 89.1422565,15.0363768 C89.1422565,15.7570104 89.2045782,16.2586279 89.3905893,16.8540176 C89.9492586,18.5775649 91.3142941,19.4549138 93.1451524,19.4549138 C94.6033525,19.4549138 95.5963657,19.0162394 96.7133864,18.1700409 C97.0237229,17.9195533 97.3028986,17.7939884 97.6132351,17.7939884 C98.2339081,17.7939884 98.699095,18.2641343 98.699095,18.8909956 C98.699095,19.2670481 98.5439267,19.5804787 98.2959119,19.8309663 C97.0237229,21.022067 95.2551863,21.8994158 92.9588233,21.8994158 C89.8869369,21.8994158 87.8080638,20.4578276 86.9702188,17.8254599 L86.9702188,17.8254599 Z" id="Fill-9"></path>
                                <path d="M102.877509,20.3011123 L102.877509,7.79728534 C102.877509,6.91993648 103.43586,6.38716863 104.180541,6.38716863 C104.925221,6.38716863 105.483891,6.91993648 105.483891,7.79728534 L105.483891,8.4867685 L105.514734,8.4867685 C106.135407,7.13927369 107.50076,6.1989818 109.3313,6.1989818 C110.355474,6.1989818 111.037833,6.44979053 111.534499,6.73174965 C112.062007,7.01370876 112.279179,7.42123281 112.279179,7.85990724 C112.279179,8.6120123 111.751671,9.17625167 110.975829,9.17625167 C110.789818,9.17625167 110.541486,9.11362977 110.324314,9.01953635 C109.765962,8.80019914 109.238454,8.64348382 108.617781,8.64348382 C106.383739,8.64348382 105.483891,10.5237465 105.483891,13.0308704 L105.483891,20.3011123 C105.483891,21.1784611 104.925221,21.711229 104.180541,21.711229 C103.43586,21.711229 102.877509,21.1784611 102.877509,20.3011123" id="Fill-10"></path>
                                <path d="M123.38611,16.6973023 L123.38611,15.0363768 C123.38611,14.911133 123.323789,14.84819 123.199781,14.84819 L120.22106,14.84819 C117.676682,14.84819 116.5285,15.6002951 116.5285,17.292692 C116.5285,18.8595241 117.645521,19.6431006 119.631547,19.6431006 C121.927592,19.6431006 123.38611,18.5460934 123.38611,16.6973023 L123.38611,16.6973023 Z M126.923184,20.4578276 C126.923184,21.1784611 126.364832,21.711229 125.588991,21.711229 C125.123486,21.711229 124.751146,21.4918918 124.440809,21.0532173 L123.851297,20.1132466 L123.820454,20.1132466 C122.827441,21.2414042 121.431245,21.8994158 119.259207,21.8994158 C115.938988,21.8994158 114.015283,20.2384904 114.015283,17.3867855 C114.015283,14.2842718 116.125317,12.7485901 119.817558,12.7485901 L123.199781,12.7485901 C123.323789,12.7485901 123.38611,12.6859682 123.38611,12.5607244 L123.38611,11.8397698 C123.38611,9.74016989 122.42394,8.5493904 119.817558,8.5493904 C118.669695,8.5493904 117.490671,8.92544293 116.776833,9.30149546 C116.5285,9.42673926 116.249324,9.52083268 116.032153,9.52083268 C115.349476,9.52083268 114.915132,9.08215825 114.915132,8.39267509 C114.915132,7.98515104 115.101461,7.57794812 115.535805,7.32713939 C116.466496,6.70059926 118.017861,6.1989818 120.065891,6.1989818 C124.037626,6.1989818 125.899327,8.11071597 125.899327,11.8086194 L125.899327,17.1985986 C125.899327,17.9821752 125.961331,18.2956058 126.178503,18.7342803 L126.706012,19.7057225 C126.830019,19.9250598 126.923184,20.2070189 126.923184,20.4578276 L126.923184,20.4578276 Z" id="Fill-11"></path>
                                <path d="M18.9378408,1.90568864 C18.9378408,0.934246363 19.7133641,0.182141301 20.6443736,0.182141301 C21.5753832,0.182141301 22.3509065,0.934246363 22.3509065,1.90568864 C22.3509065,2.84598054 21.5753832,3.62923598 20.6443736,3.62923598 C19.7133641,3.62923598 18.9378408,2.84598054 18.9378408,1.90568864" id="Fill-12"></path>
                            </g>
                            <g id="Fill-13-+-Fill-14-+-Fill-15">
                                <g id="Fill-13">
                                    <path d="M43.3129515,22.0169202 C43.3129515,34.0695082 33.6175621,43.8401381 21.6573624,43.8401381 C9.69716275,43.8401381 0.00190463681,34.0695082 0.00190463681,22.0169202 C0.00190463681,9.96433226 9.69716275,0.193569978 21.6573624,0.193569978 C33.6175621,0.193569978 43.3129515,9.96433226 43.3129515,22.0169202 Z M16.299422,33.7074712 L16.4018784,33.7044267 C13.7805727,33.5891308 11.6623539,30.0353442 9.68901878,22.8502009 C8.27906213,17.7154974 7.58853277,12.5128872 7.58104558,12.4609974 C7.52114804,12.0405845 7.84007619,11.6507494 8.25725732,11.5903879 C8.67430711,11.5294968 9.07572573,11.8219062 9.13575463,12.2423192 C9.14311047,12.2932823 9.88788914,17.4110422 11.2735453,22.4521588 C12.9471299,28.5416604 14.9192828,32.0702964 16.6904637,32.1673249 C17.6116511,32.1027275 19.2403126,30.4999693 20.8907789,26.147451 C20.985354,25.8983272 21.0784842,25.6457617 21.1684618,25.3904165 C20.3318665,22.3859729 19.8525548,19.1582181 19.8525548,16.8098093 C19.8525548,15.3477624 20.0217391,14.174948 20.3545908,13.3237971 C20.9473926,11.8088014 21.9711677,11.5914469 22.5285039,11.5825779 C23.0283068,11.5746356 23.8046105,11.6753706 24.2866807,12.9789684 C24.5243005,13.621369 24.6697097,14.4647099 24.6697097,15.564058 C24.6697097,17.9327196 23.9649941,21.8464253 22.7743991,25.4334373 C23.8895967,29.1706913 25.4700512,32.1564704 26.7363063,32.1564704 C27.5045974,32.1564704 28.4489032,31.162358 29.2346644,29.7944274 C28.4885722,28.06949 28.0536582,26.1193882 28.0536582,24.7420592 C28.0536582,23.920692 28.1896099,23.2507581 28.4582293,22.7509221 C28.8180087,22.0807235 29.4180349,21.7115384 30.1474452,21.7115384 C30.8906476,21.7115384 31.4629581,22.099785 31.8827663,22.7101515 C32.2053724,23.1795421 32.3339682,23.8169125 32.3339682,24.6182915 C32.3339682,26.0240804 31.8015894,28.0484429 30.9296598,29.8285794 C31.6075791,31.1585192 32.4273611,32.1159647 33.108827,32.1159647 C33.3866413,32.1159647 33.7049126,31.9681053 34.3544595,31.2468112 C34.6380533,30.9322957 35.1209116,30.9086012 35.4324839,31.1939948 C35.7445816,31.4793885 35.768094,31.9657226 35.4848943,32.2802381 C34.7423486,33.1047823 34.0540523,33.653993 33.108827,33.653993 C31.9300539,33.653993 30.8796138,32.6995921 30.0455143,31.3603862 C29.115132,32.72236 27.9684093,33.6944988 26.7364377,33.6944988 C24.8092079,33.6944988 22.8982661,31.085847 21.6827138,27.7397518 C20.3175489,31.0212496 18.1383817,33.5945581 16.299422,33.7038972 L16.299422,33.7074712 Z M30.1482333,14.9911527 C28.9581637,14.9911527 27.9873243,16.0747485 27.9843032,17.4103804 C27.9837777,18.0149225 28.1801524,18.6509692 28.5236438,19.1627187 C28.9402995,19.7838074 29.531131,20.1324748 30.1431105,20.1324748 L30.1470511,20.1324748 C31.4189544,20.1324748 32.3079601,18.7023295 32.3100617,17.4119688 C32.3117693,16.075278 31.3432944,14.993403 30.1482333,14.9911527 Z M29.579732,24.7192913 C29.6367398,25.7738977 29.7937081,26.8217531 30.1316826,27.8770214 C30.5440037,26.7727755 30.7592933,25.6142572 30.807763,24.6182915 C30.895245,22.8212115 29.4793774,22.8647618 29.579732,24.7192913 Z M30.2032707,18.5943141 L30.2019572,18.5943141 C29.9991462,18.5943141 29.803297,18.3995951 29.6652437,18.1936245 C29.5513595,18.0240562 29.4862078,17.7736087 29.4864705,17.5731977 C29.4875213,17.1305463 29.7344674,16.7515657 30.2036648,16.7515657 C30.6637988,16.7515657 30.9208591,17.1801857 30.9202023,17.6232343 C30.9195455,18.0509277 30.6249179,18.5943141 30.2032707,18.5943141 Z M21.7746618,13.8878335 C21.5160252,14.5492955 21.3792854,15.5596897 21.3792854,16.8098093 C21.3792854,18.5962996 21.6318797,20.6008063 22.0443321,22.5571297 C22.7293445,20.0011619 23.0864968,17.4445323 23.1433732,15.564058 C23.2340076,12.5716603 22.075069,13.1206063 21.7746618,13.8878335 Z"></path>
                                </g>
                            </g>
                        </g>
                    </g>
                </g>
            </g>
        </g>
    </g>
</svg>