<svg viewBox="0 0 110 115" xmlns="http://www.w3.org/2000/svg"><g fill="#70bd95" fill-rule="evenodd"><g transform="translate(0 95.83)"><path d="m6.989 14.929h.081l4.486-13.815c.188-.628.591-.955 1.128-.955.672 0 1.155.492 1.155 1.147 0 .164-.027.355-.107.6l-5.292 15.699c-.349.983-.725 1.392-1.477 1.392-.725 0-1.128-.41-1.451-1.392l-5.292-15.699c-.081-.246-.107-.437-.107-.6 0-.655.483-1.147 1.155-1.147.564 0 .94.328 1.155.955l4.566 13.815"/><path d="m16.743 6.875c0-.765.484-1.229 1.128-1.229.645 0 1.128.464 1.128 1.229v10.893c0 .764-.484 1.229-1.128 1.229-.645 0-1.128-.464-1.128-1.229v-10.893"/><path d="m22.291 6.875c0-.765.483-1.229 1.128-1.229.645 0 1.128.464 1.128 1.229v.382h.027c.618-1.01 1.854-1.775 3.6-1.775 2.794 0 4.459 1.938 4.459 4.914v7.372c0 .764-.484 1.229-1.128 1.229-.645 0-1.128-.464-1.128-1.229v-6.825c0-2.102-.94-3.331-2.874-3.331-1.746 0-2.955 1.256-2.955 3.194v6.962c0 .764-.484 1.229-1.128 1.229-.645 0-1.128-.464-1.128-1.229v-10.893"/><path d="m35.932 6.875c0-.765.483-1.229 1.128-1.229.645 0 1.128.464 1.128 1.229v.382h.027c.618-1.01 1.854-1.775 3.6-1.775 2.793 0 4.459 1.938 4.459 4.914v7.372c0 .764-.484 1.229-1.128 1.229-.645 0-1.128-.464-1.128-1.229v-6.825c0-2.102-.94-3.331-2.874-3.331-1.746 0-2.955 1.256-2.955 3.194v6.962c0 .764-.484 1.229-1.128 1.229-.645 0-1.128-.464-1.128-1.229v-10.893"/><path d="m57.53 14.984c.215-.71.296-1.42.296-2.676 0-1.256-.081-1.938-.296-2.648-.43-1.31-1.477-2.047-2.901-2.047-1.424 0-2.471.737-2.901 2.047-.215.71-.295 1.392-.295 2.648 0 1.256.081 1.966.295 2.676.43 1.31 1.477 2.048 2.901 2.048 1.424 0 2.471-.737 2.901-2.048m-7.978.655c-.296-.901-.43-1.802-.43-3.331 0-1.502.134-2.402.43-3.304.698-2.239 2.579-3.522 5.077-3.522 2.498 0 4.379 1.283 5.077 3.522.295.901.43 1.802.43 3.304 0 1.529-.134 2.43-.43 3.331-.698 2.212-2.579 3.522-5.077 3.522-2.498 0-4.378-1.31-5.077-3.522"/><path d="m66 17.577l-3.895-10.266c-.081-.219-.108-.382-.108-.573 0-.601.43-1.092 1.101-1.092.537 0 .887.328 1.075.819l3.331 9.09h.054l3.25-9.09c.188-.492.537-.819 1.074-.819.672 0 1.101.492 1.101 1.092 0 .191-.027.355-.107.573l-3.922 10.266c-.403 1.065-.752 1.42-1.478 1.42-.725 0-1.074-.355-1.477-1.42"/><path d="m83.29 11.11c.107 0 .161-.055.161-.164 0-.601-.054-1.065-.188-1.474-.43-1.31-1.504-2.048-2.955-2.048-1.451 0-2.525.737-2.955 2.048-.134.41-.188.874-.188 1.474 0 .109.054.164.161.164h5.963m-8 4.423c-.268-.819-.43-1.747-.43-3.304 0-1.556.134-2.484.403-3.303.725-2.266 2.579-3.522 5.02-3.522 2.525 0 4.352 1.256 5.05 3.495.295.874.43 1.884.43 3.167 0 .519-.349.873-.886.873h-7.548c-.107 0-.161.055-.161.164 0 .628.054 1.065.215 1.584.484 1.502 1.665 2.266 3.25 2.266 1.262 0 2.122-.382 3.089-1.119.269-.218.51-.328.779-.328.537 0 .94.41.94.956 0 .328-.134.601-.349.819-1.101 1.038-2.632 1.802-4.62 1.802-2.659 0-4.459-1.256-5.184-3.549"/><path d="m89.06 17.687v-10.893c0-.764.483-1.229 1.128-1.229.645 0 1.128.464 1.128 1.229v.601h.027c.537-1.174 1.719-1.993 3.304-1.993.887 0 1.477.219 1.907.464.457.246.645.601.645.983 0 .655-.457 1.147-1.128 1.147-.161 0-.376-.055-.564-.137-.483-.191-.94-.328-1.477-.328-1.934 0-2.713 1.638-2.713 3.822v6.334c0 .764-.484 1.229-1.128 1.229-.645 0-1.128-.464-1.128-1.229"/><path d="m106.82 14.547v-1.447c0-.109-.054-.164-.161-.164h-2.579c-2.203 0-3.197.655-3.197 2.13 0 1.365.967 2.048 2.686 2.048 1.988 0 3.25-.956 3.25-2.566m3.062 3.276c0 .628-.483 1.092-1.155 1.092-.403 0-.725-.191-.994-.573l-.51-.819h-.027c-.86.983-2.068 1.556-3.949 1.556-2.874 0-4.54-1.447-4.54-3.931 0-2.703 1.827-4.04 5.02-4.04h2.928c.107 0 .161-.055.161-.164v-.628c0-1.829-.833-2.867-3.089-2.867-.994 0-2.01.328-2.632.655-.215.109-.457.191-.645.191-.591 0-.967-.382-.967-.983 0-.355.161-.71.537-.928.806-.546 2.149-.983 3.922-.983 3.438 0 5.05 1.666 5.05 4.887v4.696c0 .683.054.956.242 1.338l.457.846c.107.191.188.437.188.655"/><path d="m16.394 1.66c0-.846.671-1.502 1.477-1.502.806 0 1.477.655 1.477 1.502 0 .819-.671 1.502-1.477 1.502-.806 0-1.477-.682-1.477-1.502"/></g><path d="m90.7 46.04c0 25.2-20.302 45.63-45.35 45.63-25.04 0-45.35-20.429-45.35-45.63 0-25.2 20.301-45.631 45.35-45.631 25.04 0 45.35 20.43 45.35 45.631m-56.57 24.444l.215-.006c-5.489-.241-9.924-7.672-14.06-22.695-2.952-10.736-4.398-21.614-4.414-21.723-.125-.879.542-1.694 1.416-1.82.873-.127 1.714.484 1.84 1.363.015.107 1.575 10.807 4.476 21.348 3.504 12.733 7.634 20.11 11.343 20.314 1.929-.135 5.339-3.486 8.795-12.587.198-.521.393-1.049.581-1.583-1.752-6.282-2.755-13.03-2.755-17.941 0-3.057.354-5.509 1.051-7.289 1.241-3.168 3.385-3.622 4.552-3.641 1.047-.017 2.672.194 3.682 2.92.498 1.343.802 3.107.802 5.405 0 4.953-1.476 13.14-3.969 20.636 2.335 7.814 5.645 14.06 8.296 14.06 1.609 0 3.586-2.079 5.231-4.939-1.562-3.607-2.473-7.684-2.473-10.564 0-1.717.285-3.118.847-4.163.753-1.401 2.01-2.173 3.537-2.173 1.556 0 2.755.812 3.634 2.088.676.981.945 2.314.945 3.99 0 2.939-1.115 7.172-2.941 10.894 1.42 2.781 3.136 4.783 4.563 4.783.582 0 1.248-.309 2.608-1.817.594-.658 1.605-.707 2.257-.11.654.597.703 1.614.11 2.271-1.555 1.724-2.996 2.872-4.975 2.872-2.468 0-4.668-1.996-6.414-4.796-1.948 2.848-4.349 4.88-6.929 4.88-4.04 0-8.04-5.454-10.582-12.451-2.859 6.861-7.422 12.242-11.272 12.47v.007m28.999-39.13c-2.492 0-4.525 2.266-4.531 5.058-.001 1.264.41 2.594 1.129 3.664.872 1.299 2.11 2.028 3.391 2.028h.008c2.663 0 4.525-2.99 4.529-5.688.004-2.795-2.024-5.057-4.527-5.062m-1.19 20.341c.119 2.205.448 4.396 1.156 6.603.863-2.309 1.314-4.731 1.416-6.814.183-3.758-2.782-3.666-2.571.211m1.306-12.807h-.003c-.425 0-.835-.407-1.124-.838-.238-.355-.375-.878-.374-1.297.002-.926.519-1.718 1.502-1.718.964 0 1.502.896 1.5 1.823-.001.894-.618 2.03-1.501 2.03m-17.649-9.841c-.542 1.383-.828 3.496-.828 6.11 0 3.735.529 7.927 1.393 12.02 1.434-5.344 2.182-10.69 2.301-14.622.19-6.257-2.237-5.109-2.866-3.505" transform="translate(9.593)"/></g></svg>