<svg viewBox="0 0 175 44" xmlns="http://www.w3.org/2000/svg"><g fill="none" fill-rule="evenodd"><path d="m56.01 30.03h.093l5.182-15.857c.217-.721.682-1.097 1.303-1.097.776 0 1.334.564 1.334 1.316 0 .188-.031.407-.124.689l-6.113 18.02c-.404 1.128-.838 1.598-1.707 1.598-.838 0-1.303-.47-1.676-1.598l-6.113-18.02c-.093-.282-.124-.501-.124-.689 0-.752.558-1.316 1.334-1.316.652 0 1.086.376 1.334 1.097l5.275 15.857m11.267-9.245c0-.878.559-1.41 1.303-1.41.745 0 1.303.533 1.303 1.41v12.504c0 .877-.559 1.41-1.303 1.41-.745 0-1.303-.533-1.303-1.41v-12.504m6.409 0c0-.878.558-1.41 1.303-1.41.745 0 1.303.533 1.303 1.41v.439h.031c.714-1.16 2.141-2.037 4.158-2.037 3.227 0 5.151 2.225 5.151 5.641v8.461c0 .877-.559 1.41-1.303 1.41-.745 0-1.303-.533-1.303-1.41v-7.834c0-2.413-1.086-3.823-3.32-3.823-2.02 0-3.413 1.441-3.413 3.666v7.991c0 .877-.559 1.41-1.303 1.41-.745 0-1.303-.533-1.303-1.41v-12.504m15.757 0c0-.878.558-1.41 1.303-1.41.745 0 1.303.533 1.303 1.41v.439h.031c.714-1.16 2.141-2.037 4.158-2.037 3.227 0 5.151 2.225 5.151 5.641v8.461c0 .877-.559 1.41-1.303 1.41-.745 0-1.303-.533-1.303-1.41v-7.834c0-2.413-1.086-3.823-3.32-3.823-2.02 0-3.413 1.441-3.413 3.666v7.991c0 .877-.559 1.41-1.303 1.41-.745 0-1.303-.533-1.303-1.41v-12.504m24.95 9.307c.248-.815.341-1.629.341-3.071 0-1.442-.093-2.225-.341-3.04-.496-1.504-1.707-2.35-3.351-2.35-1.645 0-2.854.846-3.351 2.35-.248.815-.341 1.598-.341 3.04 0 1.442.093 2.256.341 3.071.497 1.504 1.707 2.35 3.351 2.35 1.645 0 2.855-.846 3.351-2.35m-9.215.752c-.341-1.034-.496-2.068-.496-3.823 0-1.724.155-2.758.496-3.792.807-2.57 2.979-4.04 5.864-4.04 2.886 0 5.058 1.473 5.865 4.04.341 1.034.496 2.068.496 3.792 0 1.755-.155 2.789-.496 3.823-.807 2.539-2.979 4.04-5.865 4.04-2.886 0-5.058-1.504-5.864-4.04m19 2.225l-4.499-11.783c-.093-.251-.124-.439-.124-.658 0-.689.497-1.254 1.272-1.254.621 0 1.024.376 1.241.94l3.847 10.436h.062l3.755-10.436c.217-.564.621-.94 1.241-.94.776 0 1.272.564 1.272 1.254 0 .219-.031.407-.124.658l-4.53 11.783c-.466 1.222-.869 1.629-1.707 1.629-.838 0-1.241-.407-1.707-1.629m19.974-7.427c.124 0 .186-.063.186-.188 0-.689-.062-1.222-.217-1.692-.496-1.504-1.738-2.35-3.413-2.35-1.676 0-2.917.846-3.413 2.35-.155.47-.217 1-.217 1.692 0 .125.062.188.186.188h6.888m-9.247 5.077c-.31-.94-.496-2.01-.496-3.792 0-1.786.155-2.852.466-3.792.838-2.601 2.979-4.04 5.802-4.04 2.917 0 5.03 1.442 5.833 4.01.341 1 .496 2.162.496 3.635 0 .595-.403 1-1.024 1h-8.719c-.124 0-.186.063-.186.188 0 .721.062 1.222.248 1.818.559 1.724 1.924 2.601 3.755 2.601 1.458 0 2.451-.439 3.568-1.285.31-.25.59-.376.9-.376.621 0 1.086.47 1.086 1.097 0 .376-.155.689-.403.94-1.272 1.191-3.041 2.068-5.337 2.068-3.072 0-5.151-1.442-5.989-4.074m15.907 2.476v-12.504c0-.877.558-1.41 1.303-1.41.745 0 1.303.533 1.303 1.41v.689h.031c.621-1.347 1.986-2.288 3.817-2.288 1.024 0 1.707.251 2.203.533.528.282.745.689.745 1.128 0 .752-.528 1.316-1.303 1.316-.186 0-.434-.063-.652-.157-.558-.219-1.086-.376-1.707-.376-2.234 0-3.134 1.88-3.134 4.387v7.27c0 .877-.559 1.41-1.303 1.41-.745 0-1.303-.533-1.303-1.41m20.509-3.604v-1.661c0-.125-.062-.188-.186-.188h-2.979c-2.544 0-3.693.752-3.693 2.445 0 1.567 1.117 2.35 3.103 2.35 2.296 0 3.755-1.097 3.755-2.946m3.537 3.761c0 .721-.558 1.253-1.334 1.253-.466 0-.838-.219-1.148-.658l-.59-.94h-.031c-.993 1.128-2.389 1.786-4.561 1.786-3.32 0-5.244-1.661-5.244-4.513 0-3.103 2.11-4.638 5.802-4.638h3.382c.124 0 .186-.063.186-.188v-.721c0-2.1-.962-3.29-3.569-3.29-1.148 0-2.327.376-3.041.752-.248.125-.528.219-.745.219-.683 0-1.117-.439-1.117-1.128 0-.408.186-.815.621-1.066.931-.627 2.482-1.128 4.53-1.128 3.972 0 5.833 1.912 5.833 5.61v5.39c0 .784.062 1.097.279 1.536l.528.971c.124.219.217.501.217.752m-107.99-18.552c0-.971.776-1.724 1.707-1.724.931 0 1.707.752 1.707 1.724 0 .94-.776 1.724-1.707 1.724-.931 0-1.707-.783-1.707-1.724m-23.56 7.215c0 12.05-9.695 21.823-21.656 21.823-11.96 0-21.655-9.771-21.655-21.823 0-12.05 9.695-21.823 21.655-21.823 11.96 0 21.656 9.771 21.656 21.823m-27.01 11.691l.102-.003c-2.621-.115-4.74-3.669-6.713-10.854-1.41-5.135-2.1-10.337-2.108-10.389-.06-.42.259-.81.676-.871.417-.061.818.232.878.652.007.051.752 5.169 2.138 10.21 1.674 6.09 3.646 9.618 5.417 9.715.921-.065 2.55-1.667 4.2-6.02.095-.249.188-.502.278-.757-.837-3-1.316-6.232-1.316-8.581 0-1.462.169-2.635.502-3.486.593-1.515 1.617-1.732 2.174-1.741.5-.008 1.276.093 1.758 1.396.238.642.383 1.486.383 2.585 0 2.369-.705 6.282-1.895 9.869 1.115 3.737 2.696 6.723 3.962 6.723.768 0 1.713-.994 2.498-2.362-.746-1.725-1.181-3.675-1.181-5.05 0-.821.136-1.491.405-1.991.36-.67.96-1.039 1.689-1.039.743 0 1.316.388 1.735.999.323.469.451 1.107.451 1.908 0 1.406-.532 3.43-1.404 5.21.678 1.33 1.498 2.287 2.179 2.287.278 0 .596-.148 1.246-.869.284-.315.766-.338 1.078-.053.312.285.336.772.052 1.086-.743.825-1.431 1.374-2.376 1.374-1.179 0-2.229-.954-3.063-2.294-.93 1.362-2.077 2.334-3.309 2.334-1.927 0-3.838-2.609-5.05-5.955-1.365 3.281-3.544 5.855-5.383 5.964v.004m13.849-18.716c-1.19 0-2.161 1.084-2.164 2.419-.001.605.196 1.241.539 1.752.417.621 1.01.97 1.619.97h.004c1.272 0 2.161-1.43 2.163-2.721.002-1.337-.967-2.419-2.162-2.421m-.569 9.728c.057 1.055.214 2.102.552 3.158.412-1.104.628-2.263.676-3.259.087-1.797-1.328-1.754-1.228.101m.624-6.125h-.001c-.203 0-.399-.195-.537-.401-.114-.17-.179-.42-.179-.62.001-.443.248-.822.717-.822.46 0 .717.429.717.872-.001.428-.295.971-.717.971m-8.429-4.706c-.259.661-.395 1.672-.395 2.922 0 1.786.253 3.791.665 5.747.685-2.556 1.042-5.113 1.099-6.993.091-2.992-1.068-2.443-1.369-1.676" fill="#70bd95"/></g></svg>