<svg xmlns="http://www.w3.org/2000/svg" width="960" height="560" viewBox="0 0 960 560"><g transform="translate(NaN)" fill="#fff"><ellipse stroke="#fff" stroke-width="2" cx="483.196" cy="280" rx="275.936" ry="275.936"/><path d="M371.708 237.44c3.488 2.272 14.016 9.056 31.568 20.304 17.552 11.264 31.008 19.936 40.336 26 1.024.672 3.2 2.11 6.544 4.352 3.328 2.24 6.112 4.05 8.32 5.424 2.208 1.377 4.88 2.93 8 4.624 3.136 1.713 6.08 2.992 8.848 3.84 2.77.864 5.345 1.28 7.696 1.28h.32c2.368 0 4.928-.432 7.695-1.28 2.77-.848 5.73-2.144 8.85-3.84 3.135-1.712 5.79-3.247 8-4.624 2.207-1.375 4.975-3.184 8.318-5.424 3.328-2.24 5.52-3.68 6.545-4.352 9.44-6.08 33.472-21.52 72.063-46.32 7.49-4.848 13.76-10.688 18.786-17.536 5.04-6.832 7.552-14.016 7.552-21.52 0-6.272-2.432-11.648-7.312-16.16-4.88-4.464-10.656-6.704-17.328-6.704H369.852c-7.904 0-13.984 2.464-18.24 7.408-4.256 4.944-6.384 11.12-6.384 18.528 0 5.984 2.816 12.48 8.464 19.456 5.648 6.976 11.648 12.464 18.016 16.464m234.048 15.248c-33.664 21.088-59.232 37.488-76.672 49.168-5.856 3.983-10.593 7.104-14.24 9.327-3.648 2.24-8.496 4.513-14.544 6.85s-11.696 3.487-16.928 3.487h-.32c-5.232 0-10.88-1.168-16.944-3.488-6.048-2.336-10.912-4.608-14.544-6.85-3.647-2.223-8.384-5.343-14.24-9.326-13.855-9.408-39.36-25.792-76.528-49.168-5.856-3.616-11.04-7.744-15.552-12.4v113.12c0 6.27 2.416 11.647 7.232 16.16 4.832 4.464 10.624 6.704 17.408 6.704H596.54c6.768 0 12.575-2.24 17.392-6.704 4.832-4.464 7.232-9.84 7.232-16.16v-113.12c-4.416 4.56-9.553 8.688-15.393 12.4"/></g></svg>