<svg viewBox="0 0 175 39" xmlns="http://www.w3.org/2000/svg"><path d="M4.665 30c1.573 1.94 3.93 3.355 7.548 3.355 3.616 0 5.19-1.782 5.19-3.093 0-1.678-1.887-2.096-2.726-2.253-.89-.21-5.19-.998-6.133-1.26-6.238-1.468-7.39-5.085-7.39-7.443 0-4.455 4.04-8.544 11.216-8.544 3.984 0 6.867 1.258 8.65 2.516 1.31.837 2.148 1.73 2.672 2.357l-4.455 4.14c-.734-1.414-2.516-3.983-7.13-3.983-2.987 0-4.35 1.31-4.35 2.674 0 1.886 1.94 2.41 5.295 2.986 5.45.996 6.97 1.258 8.648 2.57 1.626 1.257 2.674 3.354 2.674 5.556 0 4.088-3.67 8.964-11.794 8.964-4.665 0-9.278-1.468-12.58-4.666L4.665 30m21.703-18.45h6.238v2.936c2.097-2.62 5.82-3.722 8.282-3.722 2.463 0 5.556.944 7.286 4.04 1.048-1.467 3.774-4.04 8.387-4.04 2.623 0 5.14.734 6.92 2.674 2.098 2.306 2.045 5.084 2.045 7.81v16.51h-6.238V23.293c0-2.463.368-6.605-4.403-6.605-1.992 0-3.616 1.1-4.455 2.464-1.207 1.94-1.363 4.04-1.363 6.29v12.32H42.83V23.134c0-1.887 0-2.57-.21-3.355-.473-1.73-1.836-3.094-4.04-3.094-1.888 0-3.723 1.1-4.824 3.04-1.1 2.045-1.153 4.51-1.153 7.08V37.76h-6.238V11.55m41.992 0h6.238v26.21h-6.238V11.55m0-10.43h6.238v6.343h-6.238V1.12M95.35 20.83c-.47-1.73-2.306-4.456-5.922-4.456-3.617 0-6.5 2.883-6.5 8.125 0 4.715 2.465 8.176 6.605 8.176 3.984 0 5.504-3.04 6.29-5.137l5.4 2.83c-2.045 5.66-7.234 8.177-11.794 8.177-7.288 0-13-5.608-13-13.89 0-8.02 5.765-13.892 13.207-13.892 6.605 0 9.96 4.403 11.323 7.443l-5.608 2.62M108.878.75v20.81L119.1 11.55h8.02l-10.01 10.01 11.01 16.196h-7.652l-7.916-11.74-3.67 3.615v8.127h-6.237V.747h6.237m35.803 20.546c-.577-4.09-3.093-5.504-5.87-5.504-3.356 0-5.662 1.94-6.396 5.502h12.263m7.13 10.588c-3.25 4.352-7.444 6.66-12.79 6.66-6.868 0-13.473-4.353-13.473-13.996 0-8.807 5.663-13.786 13.05-13.786 6.92 0 9.803 4.14 10.328 4.927 2.15 3.04 2.62 7.6 2.673 10.222H132.21c.733 4.14 3.302 6.5 7.443 6.5 4.3 0 6.03-2.516 6.816-3.616l5.346 3.094m8.234-20.338v3.722c.786-1.364 2.516-4.456 8.386-4.3v6.448c-1.362.052-3.72.105-5.66 1.573-2.674 2.043-2.726 4.717-2.726 9.07v9.696h-6.08v-26.21h6.08m11.04 23.03h.6c.38 0 .664-.057.664-.47 0-.364-.39-.42-.697-.42h-.566v.89m-.67-1.416h1.278c.85 0 1.328.266 1.328 1 0 .623-.39.865-.89.906l.906 1.48h-.705l-.825-1.448h-.422v1.45h-.67v-3.392m1.205 4.087c1.254 0 2.283-1 2.283-2.388 0-1.375-1.028-2.37-2.283-2.37-1.27 0-2.283.994-2.283 2.37 0 1.385 1.012 2.388 2.283 2.388m0-5.406c1.643 0 3.108 1.18 3.108 3.02 0 1.846-1.465 3.035-3.107 3.035-1.643 0-3.108-1.19-3.108-3.035 0-1.837 1.465-3.02 3.108-3.02" fill="#fff"/></svg>