<svg viewBox="0 0 36 35" xmlns="http://www.w3.org/2000/svg"><g transform="translate(NaN)" fill="none"><ellipse stroke="#000" stroke-width="2" cx="17.246" cy="17.246" rx="17.246" ry="17.246"/><path d="M23.93 13.205c.697-.44 1.232-1.138 1.483-1.97-.653.41-1.375.704-2.145.864-.615-.695-1.493-1.127-2.465-1.127-1.865 0-3.376 1.595-3.376 3.562 0 .28.028.55.086.81-2.806-.148-5.294-1.564-6.96-3.72-.292.527-.458 1.138-.458 1.79 0 1.236.596 2.327 1.502 2.966-.554-.017-1.074-.18-1.53-.444v.044c0 1.727 1.162 3.167 2.71 3.493-.285.084-.583.125-.892.125-.217 0-.43-.02-.635-.063.43 1.414 1.676 2.446 3.155 2.473-1.157.956-2.613 1.525-4.194 1.525-.27 0-.54-.015-.804-.05 1.495 1.01 3.27 1.6 5.177 1.6 6.213 0 9.608-5.427 9.608-10.134 0-.157 0-.31-.01-.463.66-.502 1.236-1.13 1.687-1.845-.606.283-1.257.475-1.94.56" fill="#000"/></g></svg>