<svg xmlns="http://www.w3.org/2000/svg" width="960" height="560" viewBox="0 0 960 560"><g transform="translate(NaN)"><ellipse stroke="#000" stroke-width="2" cx="485.275" cy="280" rx="275.936" ry="275.936" fill="none"/><path fill="#fff" d="M592.203 215.344c11.168-7.04 19.73-18.208 23.744-31.52-10.448 6.544-22 11.264-34.32 13.824-9.84-11.088-23.888-18-39.44-18-29.84 0-54.015 25.52-54.015 56.992 0 4.464.447 8.816 1.375 12.976-44.896-2.384-84.704-25.04-111.375-59.552-4.656 8.448-7.312 18.224-7.312 28.672 0 19.76 9.536 37.216 24.032 47.44-8.864-.288-17.184-2.88-24.496-7.12v.704c0 27.617 18.608 50.656 43.36 55.873-4.544 1.344-9.312 2-14.256 2-3.472 0-6.88-.336-10.16-1.01 6.864 22.625 26.816 39.137 50.48 39.568-18.512 15.3-41.808 24.4-67.104 24.4-4.352 0-8.672-.24-12.896-.78 23.92 16.16 52.32 25.6 82.832 25.6 99.408 0 153.728-86.85 153.728-162.16 0-2.48-.03-4.945-.144-7.377 10.56-8.032 19.744-18.08 26.96-29.52-9.696 4.528-20.112 7.6-31.023 8.96"/></g></svg>